<svg viewBox="0 0 30 30"
     fill="currentColor"
     xmlns="http://www.w3.org/2000/svg">
    <path d="M28.5416 7.77791C28.5416 7.50961 28.7589 7.29183 29.0277 7.29183C29.2965 7.29183 29.5138 7.50961 29.5138 7.77797V26.7361C29.5138 28.0763 28.4234 29.1667 27.0833 29.1667H2.77774C1.4375 29.1667 0.347168 28.0763 0.347168 26.7361V7.77797C0.347168 7.50966 0.564949 7.29188 0.833259 7.29188C1.10157 7.29188 1.31935 7.50966 1.31935 7.77797V26.7361C1.31935 27.5401 1.97366 28.1944 2.77768 28.1944H14.4443V27.0516C13.8513 26.8032 12.3327 26.25 10.5554 26.25C6.34297 26.25 3.00317 27.1777 2.91251 27.2028L2.91087 27.2033C2.86712 27.2159 2.8224 27.2223 2.77768 27.2223C2.67315 27.2223 2.5701 27.1887 2.48453 27.1241C2.36348 27.0322 2.29153 26.8883 2.29153 26.7361V5.34742C2.29153 5.13061 2.43543 4.93955 2.64398 4.88025C2.78594 4.83946 6.16294 3.8891 10.5554 3.8891C13.072 3.8891 15.0641 4.87107 15.1477 4.91237C15.3125 4.99497 15.4165 5.16319 15.4165 5.34742V23.9473C16.8977 23.1044 20.3622 21.2217 23.6804 20.0687V1.19708C20.1061 2.63449 16.6824 4.7646 16.6464 4.78745C16.4184 4.92986 16.1185 4.86036 15.9765 4.63284C15.8341 4.40532 15.9036 4.1054 16.1311 3.96299L16.1336 3.96144C16.2527 3.88768 20.1466 1.47444 23.9954 0.030879C24.1456 -0.0250612 24.3128 -0.00415484 24.4431 0.0867622C24.5744 0.177622 24.6526 0.326872 24.6526 0.486319V20.4167C24.6526 20.6262 24.5189 20.8114 24.3201 20.878C20.0694 22.2947 15.2832 25.1472 15.182 25.2075L15.182 25.2075L15.1808 25.2082C15.0306 25.2986 14.8429 25.3011 14.6908 25.2146C14.5386 25.1285 14.4443 24.9667 14.4443 24.7917V5.66238C13.8478 5.41299 12.3278 4.86128 10.5554 4.86128C7.10163 4.86128 4.23453 5.48493 3.26377 5.72362V26.1105C4.44889 25.83 7.20708 25.2777 10.5554 25.2777C12.6477 25.2777 14.3772 25.9564 14.9494 26.2091C15.593 25.9733 17.6736 25.2777 19.7916 25.2777C23.0495 25.2777 25.4956 25.8013 26.5971 26.09V5.74259C26.4367 5.71046 26.2287 5.67013 25.9802 5.62444C25.7163 5.57585 25.5418 5.32258 25.5904 5.05815C25.639 4.79468 25.8932 4.61968 26.1562 4.66828C26.8076 4.7879 27.1887 4.87295 27.1887 4.87295C27.4114 4.92206 27.5694 5.11944 27.5694 5.34742V26.736C27.5694 26.8921 27.4945 27.0389 27.3676 27.1303C27.2398 27.2217 27.0764 27.246 26.9301 27.1974C26.9015 27.1877 24.0261 26.25 19.7916 26.25C17.9716 26.25 16.1254 26.8279 15.4166 27.0759V28.1944H27.0833C27.8873 28.1944 28.5416 27.5401 28.5416 26.7361V7.77791ZM16.7116 8.33333C16.7922 8.33333 16.8749 8.31874 16.9519 8.28793C16.9831 8.27543 20.1043 7.02967 21.6437 6.64762C21.9227 6.57804 22.0774 6.34388 21.9889 6.12475C21.9008 5.90558 21.605 5.78352 21.3234 5.8527C19.702 6.25557 16.6024 7.49279 16.4704 7.54549L16.4704 7.54549L16.4704 7.5455C16.2095 7.64964 16.1056 7.90045 16.2381 8.10586C16.3319 8.24999 16.5186 8.33333 16.7116 8.33333ZM16.2381 13.9392C16.3319 14.0834 16.5186 14.1667 16.7116 14.1667C16.7922 14.1667 16.8749 14.1521 16.9519 14.1213C16.9831 14.1088 20.1043 12.863 21.6437 12.4809C21.9227 12.4114 22.0774 12.1772 21.9889 11.9581C21.9008 11.7389 21.605 11.6169 21.3234 11.686C19.7019 12.0889 16.6019 13.3263 16.4704 13.3788C16.2095 13.483 16.1056 13.7338 16.2381 13.9392ZM16.2381 10.6059C16.3319 10.75 16.5186 10.8333 16.7116 10.8333C16.7922 10.8333 16.8749 10.8187 16.9519 10.7879C16.9831 10.7754 20.1043 9.52967 21.6437 9.14762C21.9227 9.07804 22.0774 8.84388 21.9889 8.62475C21.9008 8.40558 21.605 8.28352 21.3234 8.3527C19.7019 8.7556 16.6019 9.99301 16.4704 10.0455C16.2095 10.1496 16.1056 10.4005 16.2381 10.6059ZM16.7116 16.6667C16.5186 16.6667 16.3319 16.5834 16.2381 16.4392C16.1056 16.2338 16.2095 15.983 16.4704 15.8788C16.6019 15.8263 19.7019 14.5889 21.3234 14.186C21.605 14.1169 21.9008 14.2389 21.9889 14.4581C22.0774 14.6772 21.9227 14.9114 21.6437 14.9809C20.1043 15.363 16.9831 16.6088 16.9519 16.6213C16.8749 16.6521 16.7922 16.6667 16.7116 16.6667ZM11.6705 9.47454C8.9262 8.66826 5.8077 9.69547 5.67661 9.73942C5.43975 9.81897 5.29888 10.1239 5.36241 10.421C5.41574 10.6697 5.59526 10.8333 5.79129 10.8333C5.82952 10.8333 5.86816 10.8272 5.90686 10.8144C5.93665 10.8039 8.93911 9.81506 11.4679 10.5579C11.7056 10.6275 11.9461 10.4422 12.002 10.1428C12.058 9.84401 11.9095 9.54464 11.6705 9.47454ZM5.67661 12.2392C5.8077 12.1953 8.9262 11.1685 11.6705 11.9743C11.9095 12.0444 12.058 12.3439 12.002 12.6427C11.9461 12.9421 11.7056 13.1274 11.4679 13.0579C8.93911 12.3149 5.93665 13.3039 5.90686 13.3144C5.86816 13.3272 5.82952 13.3333 5.79129 13.3333C5.59526 13.3333 5.41574 13.1697 5.36241 12.921C5.29888 12.6238 5.43975 12.3188 5.67661 12.2392ZM16.2381 19.7725C16.3319 19.9167 16.5186 20 16.7116 20C16.7922 20 16.8749 19.9854 16.9519 19.9546C16.9831 19.9421 20.1043 18.6963 21.6437 18.3143C21.9227 18.2447 22.0774 18.0105 21.9889 17.7914C21.9008 17.5723 21.605 17.4502 21.3234 17.5194C19.7024 17.9221 16.6039 19.1589 16.4705 19.2121L16.4704 19.2122L16.4704 19.2122C16.2095 19.3163 16.1056 19.5672 16.2381 19.7725ZM5.67661 14.7391C5.8077 14.6946 8.9262 13.6688 11.6705 14.4743C11.9095 14.5444 12.058 14.8437 12.002 15.1424C11.9461 15.4417 11.7056 15.6269 11.4679 15.5574C8.93911 14.8147 5.93665 15.8033 5.90686 15.8138C5.86816 15.8267 5.82952 15.8333 5.79129 15.8333C5.59526 15.8333 5.41574 15.6692 5.36241 15.4205C5.29888 15.1235 5.43975 14.8186 5.67661 14.7391ZM11.6705 20.3078C8.9262 19.5018 5.8077 20.5286 5.67661 20.5725C5.43975 20.6521 5.29888 20.9569 5.36241 21.2539C5.41574 21.5025 5.59526 21.6667 5.79129 21.6667C5.82952 21.6667 5.86816 21.66 5.90686 21.6472C5.93665 21.6366 8.93911 20.6482 11.4679 21.3907C11.7056 21.4597 11.9461 21.275 12.002 20.9758C12.058 20.6771 11.9095 20.3778 11.6705 20.3078ZM5.67661 18.0726C5.8077 18.0281 8.9262 17.0019 11.6705 17.8078C11.9095 17.8779 12.058 18.1772 12.002 18.4758C11.9461 18.7751 11.7056 18.9603 11.4679 18.8908C8.93911 18.1482 5.93665 19.1366 5.90686 19.1472C5.86816 19.16 5.82952 19.1667 5.79129 19.1667C5.59526 19.1667 5.41574 19.0025 5.36241 18.7539C5.29888 18.457 5.43975 18.1521 5.67661 18.0726Z"/>
</svg>
