<svg viewBox="0 0 24 19"
     fill="currentColor"
     xmlns="http://www.w3.org/2000/svg">
    <path d="M2.65967 0C3.76247 0 4.65967 0.8972 4.65967 2C4.65967 3.1028 3.76247 4 2.65967 4C1.55687 4 0.659668 3.1028 0.659668 2C0.659668 0.8972 1.55687 0 2.65967 0ZM1.85967 2C1.85967 2.44112 2.21855 2.8 2.65967 2.8C3.10079 2.8 3.45967 2.44112 3.45967 2C3.45967 1.55888 3.10079 1.2 2.65967 1.2C2.21855 1.2 1.85967 1.55888 1.85967 2Z"/>
    <path d="M13.2057 17.8028C9.15709 17.8028 5.86334 14.5268 5.86334 10.5C5.86334 6.47323 9.15709 3.19718 13.2057 3.19718C15.8559 3.19718 18.31 4.62646 19.6104 6.92729L20.6596 6.34063C19.1464 3.66325 16.2902 2 13.2057 2C8.49339 2 4.65967 5.81307 4.65967 10.5C4.65967 15.1869 8.49339 19 13.2057 19C16.2902 19 19.1464 17.3368 20.6597 14.6594L19.6104 14.0727C18.31 16.3735 15.8559 17.8028 13.2057 17.8028Z"/>
</svg>
