<svg width="18" height="12" viewBox="0 0 18 12" fill="none" xmlns="http://www.w3.org/2000/svg">
<path d="M10.0399 11.245L17.561 3.71261C17.8537 3.43521 18 3.08882 18 2.67275C18 2.25668 17.8536 1.9103 17.561 1.6329L16.6944 0.754873C16.4094 0.469831 16.063 0.32731 15.6548 0.32731C15.2543 0.32731 14.9037 0.469791 14.6034 0.754873L8.99998 6.36964L3.38501 0.75463C3.10001 0.469669 2.75358 0.327148 2.34532 0.327148C1.94487 0.327148 1.59419 0.469629 1.29402 0.75463L0.427521 1.63274C0.142521 1.91774 4.00543e-05 2.26449 4.00543e-05 2.67259C4.00543e-05 3.08085 0.142521 3.42752 0.427521 3.71244L7.94868 11.245C8.24905 11.5301 8.59953 11.6727 9.00002 11.6727C9.40824 11.6728 9.75487 11.5301 10.0399 11.245Z" fill="#1A2B40"/>
</svg>
