<svg width="25" 
     height="25" 
     viewBox="0 0 23 23" 
     xmlns="http://www.w3.org/2000/svg">
    <path fill-rule="evenodd" 
          d="M22.1045 7.31798C22.5178 7.5598 22.8136 7.94709 22.9377 8.41001C23.0626 8.87644 22.9984 9.36358 22.7571 9.78158L20.3441 13.9611C20.261 14.1051 20.1101 14.1857 19.9548 14.1857C19.8784 14.1857 19.8012 14.1664 19.7305 14.1255C19.5157 14.0014 19.442 13.7266 19.5661 13.5118L21.979 9.33235C22.1005 9.12212 22.1326 8.87715 22.0698 8.64253C22.0078 8.41142 21.8606 8.21821 21.6551 8.09642L17.7883 14.7941V21.6525C17.7883 22.3955 17.1838 23 16.4409 23H1.34765C0.604514 23 0 22.3955 0 21.6525V13.5273C0 13.2791 0.201095 13.078 0.449218 13.078C0.697341 13.078 0.898436 13.2791 0.898436 13.5273V21.6525C0.898436 21.9001 1.09988 22.1017 1.34765 22.1017H10.8723L11.384 21.2155L11.6433 17.9782C11.6486 17.9119 11.6686 17.8473 11.702 17.7896L16.8901 8.80344V5.14358H13.9926C13.2496 5.14358 12.645 4.53904 12.645 3.79587V0.898472H1.34765C1.09988 0.898472 0.898436 1.09993 0.898436 1.34771V9.48432C0.898436 9.73227 0.697341 9.93355 0.449218 9.93355C0.201095 9.93355 0 9.73227 0 9.48432V1.34771C0 0.604538 0.604514 0 1.34765 0H13.0942C13.2133 0 13.3277 0.0473804 13.4118 0.131612L17.6569 4.37672C17.7411 4.46095 17.7883 4.57519 17.7883 4.69434V7.24726L18.118 6.67607H18.1182L19.1063 4.96441C19.2264 4.75646 19.4201 4.60783 19.6519 4.54571C19.8837 4.48358 20.1258 4.51552 20.3336 4.63538L22.0454 5.6237C22.4742 5.87148 22.6218 6.42197 22.3742 6.85102L22.1045 7.31798ZM13.5435 3.79587C13.5435 4.04365 13.7451 4.24511 13.9927 4.24511H16.2547L13.5435 1.53372V3.79587ZM19.8844 5.41348L21.5963 6.40128L21.5962 6.4018L21.1022 7.25763H21.102V7.25781L20.8325 7.72459L19.1207 6.73627L19.8844 5.41348ZM12.7046 17.8498L14.4164 18.8381L20.3832 8.50249L18.6715 7.51434L12.7046 17.8498ZM12.4821 18.7586L13.7406 19.4853L12.3468 20.446L12.4821 18.7586ZM16.4408 22.1017C16.6884 22.1017 16.89 21.9001 16.89 21.6525V16.3503L14.9698 19.6762C14.9365 19.7341 14.8907 19.7836 14.8357 19.8215L12.162 21.6647L11.9097 22.1017H16.4408Z" />
    <path d="M3.45029 15H7.54953C7.79817 15 8 14.776 8 14.5C8 14.2238 7.79817 14 7.54953 14H3.45029C3.20165 14 3 14.2238 3 14.5C3 14.776 3.20165 15 3.45029 15Z" />
    <path d="M3.45029 18H7.54953C7.79817 18 8 17.7762 8 17.5C8 17.224 7.79817 17 7.54953 17H3.45029C3.20165 17 3 17.224 3 17.5C3 17.7762 3.20165 18 3.45029 18Z" />
    <path d="M9.70149 17H9.29851C9.13363 17 9 17.224 9 17.5C9 17.7762 9.13363 18 9.29851 18H9.70149C9.86637 18 10 17.7762 10 17.5C10 17.224 9.86637 17 9.70149 17Z" />
    <path d="M9.70149 14H9.29851C9.13363 14 9 14.2238 9 14.5C9 14.776 9.13363 15 9.29851 15H9.70149C9.86637 15 10 14.776 10 14.5C10 14.2238 9.86637 14 9.70149 14Z" />
    <path fill-rule="evenodd"
          d="M7.99992 4H5.70489C5.47851 4 5.29503 4.19108 5.29503 4.42685V6.73167H3.4097C3.18347 6.73167 3 6.92275 3 7.15852V10.5732C3 10.8089 3.18347 11 3.4097 11H12.5901C12.8165 11 13 10.8089 13 10.5732V5.80861C13 5.57284 12.8165 5.38176 12.5901 5.38176H10.2951C10.0687 5.38176 9.88526 5.57284 9.88526 5.80861V7.66524H8.40978V4.42685C8.40978 4.19108 8.2263 4 7.99992 4ZM3.81958 7.58536H5.29506V10.1463H3.81958V7.58536ZM6.11475 4.85355V7.15853V10.1463H7.59023V4.85355H6.11475ZM10.705 6.23544H12.1803V10.1463H10.705V6.23544ZM9.88527 10.1463V8.51895H8.40979V10.1463H9.88527Z" />
    <path d="M0.5 13C0.631445 13 0.760547 12.9465 0.853516 12.8535C0.946484 12.7605 1 12.6314 1 12.5C1 12.3686 0.946484 12.2395 0.853516 12.1465C0.760547 12.0529 0.631445 12 0.5 12C0.368555 12 0.239453 12.0529 0.146484 12.1465C0.0535156 12.2395 0 12.3686 0 12.5C0 12.6314 0.0535156 12.7605 0.146484 12.8535C0.239453 12.9465 0.368555 13 0.5 13Z" />
</svg>
