<svg width="25"
     height="25"
     viewBox="0 0 25 24"
     xmlns="http://www.w3.org/2000/svg">
    <path d="M21.9219 15.3347C21.6027 15.3347 21.3439 15.5954 21.3439 15.9171V21.0879C21.3428 22.0525 20.5671 22.8341 19.6097 22.835H3.39025C2.43285 22.8341 1.65723 22.0525 1.6561 21.0879V5.91186C1.65723 4.94754 2.43285 4.16588 3.39025 4.16475H8.5227C8.84199 4.16475 9.10075 3.90404 9.10075 3.58237C9.10075 3.26093 8.84199 3 8.5227 3H3.39025C1.79474 3.00182 0.501806 4.30442 0.5 5.91186V21.0881C0.501806 22.6956 1.79474 23.9982 3.39025 24H19.6097C21.2053 23.9982 22.4982 22.6956 22.5 21.0881V15.9171C22.5 15.5954 22.2412 15.3347 21.9219 15.3347Z"/>
    <path d="M19.369 0.808741C20.3875 -0.26958 22.0387 -0.26958 23.0573 0.808741L23.7373 1.52874C24.7542 2.60778 24.7542 4.35457 23.7373 5.43361L13.3981 16.3805C13.3272 16.4555 13.2394 16.5097 13.143 16.538L8.23426 17.9778C8.033 18.0367 7.81749 17.9766 7.66966 17.8203C7.52205 17.6638 7.46523 17.4356 7.52115 17.2225L8.88081 12.0255C8.90753 11.9234 8.95869 11.8304 9.02955 11.7554L19.369 0.808741ZM18.7544 3.195L10.2923 12.1542L13.0212 15.0436L21.4834 6.08434L18.7544 3.195ZM9.74719 13.3124L11.9275 15.621L8.9116 16.5056L9.74719 13.3124ZM22.3032 5.2167L22.9178 4.56597C23.4826 3.96653 23.4826 2.99606 22.9178 2.39638L22.2375 1.67638C21.6718 1.07742 20.7545 1.07742 20.1887 1.67638L19.5739 2.32711L22.3032 5.2167Z"/>
</svg>
