<svg width="30"
     height="24"
     viewBox="0 0 27 20"
     xmlns="http://www.w3.org/2000/svg">
    <path fill-rule="evenodd"
          d="M26.5419 20.1227H20.7821V17.4291C22.0399 17.2623 23.1547 16.4876 23.8029 15.3132C24.6641 15.119 25.4464 14.6273 26.0252 13.9118C26.6535 13.1349 26.9995 12.1421 26.9995 11.1162C26.9995 9.55557 26.1892 8.1111 24.9142 7.3608C24.7814 4.75826 22.7471 2.6831 20.2695 2.6831C19.4896 2.6831 18.7179 2.89243 18.038 3.28846C17.8264 3.41166 17.7561 3.68063 17.8811 3.88923C18.0061 4.09793 18.2788 4.16715 18.4903 4.04395C19.0334 3.72765 19.6486 3.5605 20.2695 3.5605C22.34 3.5605 24.0276 5.38347 24.0315 7.62421C24.0318 7.78933 24.126 7.94031 24.2754 8.01488C25.3898 8.57109 26.1098 9.7884 26.1098 11.1162C26.1098 12.7919 24.9591 14.2428 23.433 14.491C23.2901 14.5143 23.1677 14.6046 23.1048 14.7334C22.6275 15.7094 21.7652 16.3692 20.7821 16.541V12.659L22.9715 10.6735C23.1523 10.5095 23.1641 10.232 22.9978 10.0537C22.8314 9.87535 22.5501 9.86365 22.3692 10.0277L20.7821 11.467V8.53843C20.7821 8.29613 20.583 8.09971 20.3373 8.09971C20.0916 8.09971 19.8924 8.29613 19.8924 8.53843V13.8483L18.3053 12.409C18.1245 12.2449 17.8431 12.2566 17.6768 12.4349C17.5105 12.6133 17.5223 12.8908 17.7031 13.0548L19.8925 15.0402V16.5615C18.8435 16.4282 17.9184 15.7437 17.422 14.708C17.3626 14.5842 17.248 14.4948 17.1123 14.4664C15.6361 14.1571 14.5648 12.7482 14.5648 11.1162C14.5648 9.82933 15.2228 8.66465 16.282 8.07682C16.4238 7.99814 16.5107 7.84945 16.5087 7.68912C16.5086 7.67695 16.5081 7.66488 16.5077 7.65287C16.5074 7.6459 16.5072 7.63898 16.5072 7.63207C16.5072 6.71816 16.7807 5.85465 17.298 5.13499C17.4402 4.93731 17.3929 4.66345 17.1925 4.5234C16.992 4.38319 16.7143 4.42994 16.5723 4.62751C15.9829 5.44734 15.6557 6.41855 15.6207 7.44687C14.4143 8.22275 13.6751 9.60471 13.6751 11.1162C13.6751 13.0823 14.9408 14.7948 16.7146 15.2737C17.3823 16.5138 18.5632 17.3163 19.8926 17.4448V20.1227H19.6108C19.5453 18.9745 18.7494 17.9757 17.6412 17.6384C17.2935 16.9088 16.6181 16.3798 15.8239 16.2083C15.5635 15.041 14.498 14.1706 13.2563 14.1706C12.2989 14.1706 11.4307 14.6781 10.9679 15.4858C10.0565 15.52 9.23708 16.0002 8.76637 16.7441C8.47301 15.9482 7.72155 15.3687 6.84173 15.3064V14.1529C8.04265 13.9883 9.10604 13.2475 9.72735 12.1269C10.5527 11.9388 11.3023 11.4666 11.8572 10.7805C12.4614 10.0336 12.7942 9.07888 12.7942 8.09243C12.7942 6.59527 12.0185 5.20915 10.7972 4.48611C10.6647 1.98924 8.71084 0 6.33179 0C5.41922 0 4.54146 0.290247 3.79332 0.839484C3.59631 0.984113 3.55544 1.25902 3.70209 1.45337C3.84874 1.64766 4.12745 1.68797 4.32457 1.54334C4.91793 1.10763 5.61202 0.877397 6.33179 0.877397C8.30358 0.877397 9.91081 2.6143 9.91456 4.74926C9.91487 4.91438 10.0091 5.06535 10.1585 5.13993C11.2191 5.6693 11.9043 6.82826 11.9043 8.09243C11.9043 9.68772 10.8095 11.0688 9.35752 11.305C9.21467 11.3283 9.09217 11.4186 9.02925 11.5474C8.57864 12.4689 7.76764 13.0944 6.84163 13.264V9.57777L8.93159 7.68251C9.11242 7.51848 9.12418 7.24098 8.9579 7.06265C8.79163 6.88427 8.51019 6.87262 8.32936 7.0367L6.84163 8.38584V5.62463C6.84163 5.38233 6.64245 5.1859 6.39676 5.1859C6.15107 5.1859 5.95189 5.38233 5.95189 5.62463V10.6656L4.46421 9.31649C4.28333 9.15242 4.00194 9.16412 3.83567 9.34245C3.66934 9.52078 3.68115 9.79833 3.86198 9.96231L5.95184 11.8576V13.2845C4.96276 13.1511 4.0918 12.502 3.62273 11.5233C3.5634 11.3995 3.44881 11.3101 3.31302 11.2817C1.90855 10.9873 0.889139 9.64611 0.889139 8.09243C0.889139 6.86711 1.51536 5.75833 2.52348 5.19885C2.66512 5.12022 2.75203 4.97179 2.75013 4.81151C2.75003 4.79965 2.74966 4.7878 2.74923 4.77599L2.74904 4.76963L2.74876 4.75675C2.74876 4.21411 2.85017 3.68937 3.05014 3.19713C3.10962 3.05089 3.17812 2.90725 3.2539 2.77006C3.37139 2.55725 3.29176 2.29087 3.07598 2.175C2.86019 2.05903 2.59003 2.13761 2.47259 2.35042C2.38025 2.51767 2.29672 2.69273 2.22437 2.87079C2.00521 3.41015 1.88376 3.98055 1.86251 4.56906C0.707047 5.31623 -0.000488281 6.64239 -0.000488281 8.09243C-0.000488281 9.98009 1.21335 11.625 2.91551 12.0886C3.55559 13.272 4.68247 14.0398 5.95189 14.1683V15.4232C5.46505 15.5909 5.0484 15.9226 4.78035 16.3682C3.70003 16.4288 2.82712 17.2156 2.65795 18.2533C1.86119 18.6023 1.26883 19.2944 1.05072 20.1226H0.444378C0.198689 20.1226 -0.000488281 20.319 -0.000488281 20.5613C-0.000488281 20.8036 0.198689 21 0.444378 21H1.41891H11.4613H19.1523H26.5419C26.7876 21 26.9868 20.8036 26.9868 20.5613C26.9868 20.319 26.7876 20.1227 26.5419 20.1227ZM1.98376 20.1227C2.19597 19.5893 2.64236 19.1645 3.21105 18.9828C3.38998 18.9257 3.51311 18.7638 3.51865 18.5784C3.54106 17.829 4.15431 17.2419 4.91479 17.2419C4.94527 17.2419 4.9786 17.2433 5.01957 17.2462C5.21015 17.2598 5.38845 17.1525 5.46243 16.9787C5.66978 16.4922 6.1494 16.1778 6.68434 16.1778C7.37126 16.1778 7.95112 16.7063 8.00449 17.381C8.02157 17.5963 8.19502 17.7674 8.41344 17.7843C8.53473 17.7936 8.65201 17.8199 8.76307 17.8599L8.76444 17.8605C8.78506 17.868 8.80536 17.876 8.82551 17.8845L8.83853 17.89C8.85736 17.898 8.87598 17.9065 8.89427 17.9154L8.91278 17.9248C8.93815 17.9376 8.96299 17.9512 8.98735 17.9655L8.9973 17.9713L8.99743 17.9714C9.00738 17.9772 9.01731 17.983 9.02701 17.9893C9.03111 17.9918 9.03514 17.9945 9.03915 17.9972C9.04143 17.9988 9.0437 18.0003 9.04597 18.0019L9.05596 18.0086C9.07057 18.0184 9.08507 18.0284 9.09931 18.0388C9.10737 18.0447 9.11534 18.0507 9.12319 18.0568C9.14039 18.07 9.15737 18.0836 9.17387 18.0977L9.18758 18.1091C9.2314 18.1474 9.2727 18.1886 9.31114 18.2324L9.32163 18.2447C9.33782 18.2635 9.35343 18.2829 9.36857 18.3027L9.37732 18.3141C9.41186 18.3605 9.44334 18.4094 9.47161 18.4604L9.47619 18.4689L9.48258 18.481C9.4926 18.4999 9.50214 18.5191 9.51127 18.5386L9.51132 18.5387C9.51494 18.5464 9.51856 18.554 9.52202 18.5617C9.53326 18.587 9.54391 18.6127 9.55356 18.6387L9.55461 18.6414C9.60677 18.7835 9.72943 18.8891 9.87919 18.9209C9.91895 18.9294 9.95792 18.9397 9.99626 18.9513C10.0039 18.9536 10.0114 18.9562 10.0189 18.9588L10.0333 18.9638C10.0588 18.9722 10.0842 18.9808 10.1091 18.9906C10.1193 18.9946 10.1293 18.999 10.1393 19.0034L10.1515 19.0087C10.1737 19.0183 10.1958 19.028 10.2174 19.0386C10.2319 19.0458 10.2461 19.0535 10.2603 19.0611C10.2808 19.0719 10.301 19.0832 10.3208 19.095C10.3349 19.1033 10.3487 19.112 10.3625 19.1209C10.3817 19.1332 10.4006 19.146 10.4192 19.1592C10.4324 19.1686 10.4455 19.1781 10.4584 19.1879C10.4768 19.2019 10.4946 19.2165 10.5123 19.2314L10.519 19.237C10.5287 19.2451 10.5385 19.2533 10.548 19.2618C10.5661 19.278 10.5834 19.2949 10.6006 19.3119L10.6103 19.3213C10.6174 19.3282 10.6245 19.3351 10.6312 19.3422C10.6506 19.3625 10.669 19.3837 10.6872 19.4051L10.6961 19.4153C10.7001 19.4196 10.704 19.424 10.7077 19.4286C10.732 19.4584 10.7551 19.4891 10.7769 19.5208C10.7795 19.5245 10.7818 19.5283 10.7842 19.5321L10.7842 19.5321L10.7899 19.5411C10.8067 19.5664 10.8231 19.5919 10.8384 19.6182C10.8428 19.6259 10.847 19.6338 10.8511 19.6417L10.8579 19.6546C10.8698 19.6763 10.8814 19.6981 10.8921 19.7204C10.8969 19.7305 10.9013 19.7406 10.9057 19.7508L10.9057 19.7509L10.9108 19.7626C10.9202 19.7839 10.9292 19.8053 10.9376 19.8272C10.9433 19.8421 10.9485 19.8573 10.9537 19.8724C10.9611 19.8941 10.9681 19.9159 10.9745 19.9379C10.9791 19.9535 10.9833 19.9692 10.9874 19.985C10.993 20.0074 10.9979 20.0299 11.0025 20.0525C11.0058 20.0684 11.0089 20.0842 11.0116 20.1002C11.0123 20.1044 11.0128 20.1087 11.0133 20.113L11.0146 20.1227H1.98376ZM11.9117 20.1227V20.1227V20.1229H18.7198C18.6514 19.3069 18.0425 18.6108 17.2218 18.4364C17.072 18.4046 16.9494 18.299 16.8972 18.1569C16.6654 17.5253 16.0772 17.0835 15.3987 17.0313C15.1802 17.0145 15.0067 16.8434 14.9897 16.628C14.9197 15.7422 14.1583 15.0482 13.2564 15.0482C12.5541 15.0482 11.9243 15.4609 11.6521 16.0997C11.5782 16.2734 11.3997 16.3812 11.2093 16.3672C11.156 16.3634 11.1124 16.3616 11.0723 16.3616C10.4166 16.3616 9.82311 16.705 9.4989 17.2451C9.50321 17.2478 9.50737 17.2507 9.51153 17.2536C9.5149 17.2559 9.51828 17.2583 9.52174 17.2605C9.55063 17.2792 9.57922 17.2982 9.60716 17.3182C9.62344 17.3298 9.63927 17.3418 9.65509 17.3539C9.65859 17.3566 9.66209 17.3592 9.66559 17.3619C9.6811 17.3738 9.69655 17.3856 9.71174 17.3979C9.73262 17.4147 9.75308 17.4319 9.77322 17.4494C9.78567 17.4602 9.7978 17.4712 9.80998 17.4823L9.81019 17.4825C9.83121 17.5016 9.85218 17.5207 9.87247 17.5406C9.87959 17.5476 9.88634 17.555 9.89341 17.5621C9.93438 17.6035 9.97356 17.6464 10.0111 17.6909C10.0143 17.6947 10.0176 17.6986 10.0209 17.7024C10.0274 17.7099 10.0339 17.7175 10.0402 17.7253C10.0564 17.7452 10.0718 17.7657 10.0872 17.7862C10.0994 17.8025 10.1116 17.8188 10.1234 17.8354C10.137 17.8546 10.1503 17.8738 10.1632 17.8934C10.1766 17.9137 10.1896 17.9344 10.2024 17.9552C10.2053 17.96 10.2082 17.9648 10.2112 17.9695C10.2189 17.982 10.2265 17.9944 10.2339 18.0071C10.2537 18.0414 10.2725 18.0763 10.2905 18.1118C10.2918 18.1143 10.2931 18.1167 10.2945 18.1192C10.2955 18.1211 10.2966 18.123 10.2976 18.125L10.2982 18.1253C10.3504 18.1421 10.4016 18.161 10.4521 18.1812C10.454 18.182 10.4559 18.1827 10.4579 18.1834C10.4602 18.1843 10.4626 18.1852 10.4649 18.1862C10.5131 18.2059 10.5602 18.2273 10.6066 18.25C10.6089 18.2511 10.6113 18.2522 10.6136 18.2533C10.6175 18.2551 10.6214 18.257 10.6253 18.259C10.6703 18.2815 10.7144 18.3055 10.7577 18.3307L10.7778 18.3425C10.8205 18.3679 10.8623 18.3946 10.9032 18.4226L10.9221 18.4358C10.963 18.4644 11.0029 18.4941 11.0417 18.525L11.0575 18.538C11.097 18.57 11.1355 18.6031 11.1726 18.6375L11.1827 18.647C11.2213 18.6832 11.2589 18.7205 11.295 18.7591L11.2961 18.7604C11.3326 18.7995 11.3675 18.8398 11.4011 18.8812L11.4073 18.8887C11.4395 18.9285 11.4701 18.9697 11.4996 19.0116C11.5008 19.0133 11.502 19.0149 11.5033 19.0166C11.5056 19.0198 11.5079 19.023 11.5101 19.0263C11.5385 19.0671 11.5653 19.1089 11.5909 19.1515L11.6024 19.1706C11.6273 19.2129 11.6508 19.2559 11.673 19.2997L11.6834 19.3205C11.7053 19.3646 11.7258 19.4093 11.7447 19.4548L11.7529 19.4749C11.7719 19.5214 11.7895 19.5684 11.8053 19.6162L11.8104 19.6322C11.8264 19.6819 11.8411 19.732 11.8539 19.783L11.8554 19.7896C11.868 19.8409 11.8789 19.8929 11.8879 19.9454L11.8897 19.9544C11.8984 20.0058 11.905 20.0579 11.9101 20.1103C11.9104 20.1144 11.9113 20.1185 11.9117 20.1227Z"/>
</svg>
