<svg width="30"
     height="30"
     viewBox="0 0 27 25"
     fill="currentColor"
     xmlns="http://www.w3.org/2000/svg">
    <path d="M10.7833 24.4405C11.6216 24.8133 12.5268 25 13.4326 25C14.2719 25 15.1114 24.8399 15.8978 24.5183L19.0936 23.2111L19.6429 23.0708C21.2883 22.6501 22.6784 21.4513 23.3611 19.8642L26.4836 12.6076C26.541 12.4737 26.5286 12.3188 26.4503 12.1963C26.3723 12.0739 26.2389 12 26.0957 12H25.8377C24.6913 12 23.5962 12.5598 22.9269 13.4738L19.4744 17.5411C19.1348 16.9804 18.5275 16.6065 17.8366 16.6065H13.828C12.9332 16.6065 12.0718 16.3604 11.337 15.8943C10.3249 15.2522 8.69282 14.3903 6.66586 13.9297C3.06189 13.1096 0.702564 16.2614 0.604138 16.3961C0.549106 16.4709 0.519287 16.5621 0.519287 16.6559V20.8784C0.519287 21.101 0.68414 21.2874 0.900872 21.3095L2.21727 21.4441C3.79112 21.605 5.32449 22.0135 6.77471 22.6586L10.7833 24.4405ZM2.30151 20.5819L1.3667 20.4862H1.36694V16.8091C1.78925 16.2981 3.75318 14.1562 6.48246 14.7753C8.39305 15.2098 9.93442 16.0237 10.8906 16.6303C11.7594 17.1814 12.7752 17.4727 13.8281 17.4727H17.8367C18.4311 17.4727 18.9148 17.9673 18.9148 18.5751C18.9148 19.183 18.4309 19.6775 17.8367 19.6775H12.2438C11.4254 19.6775 10.6169 19.8116 9.84278 20.0754L9.82121 20.0826L9.95285 20.4944L10.1085 20.8984C10.7982 20.6634 11.5168 20.5442 12.2438 20.5442H17.8367C18.8983 20.5442 19.7621 19.6609 19.7621 18.5754C19.7621 18.5583 19.7618 18.5416 19.7613 18.5248L23.5859 14.0174C24.0329 13.4081 24.704 13.0062 25.4332 12.8964L22.5852 19.5152C22.0074 20.8588 20.8304 21.8737 19.4372 22.2299L18.86 22.3777C18.8413 22.3824 18.8231 22.3883 18.8052 22.3955L15.5833 23.7134C14.1561 24.2972 12.5306 24.2726 11.1211 23.646L7.11278 21.864C5.58159 21.1833 3.96288 20.7517 2.30151 20.5819Z" />
    <path d="M14.9957 11.4258C15.8035 11.8085 16.5373 12 17.1918 12C17.7386 12 18.2299 11.8662 18.6623 11.5984C20.696 10.3403 20.5205 6.56147 20.512 6.40138C20.5013 6.19515 20.3282 6.03021 20.111 6.01891C17.7298 5.89319 16.0786 6.39492 15.2004 7.50888C13.9921 9.04129 14.7524 11.1135 14.7853 11.2009C14.8223 11.2985 14.8978 11.3792 14.9957 11.4258ZM18.1973 10.9234C17.5497 11.3241 16.6562 11.2754 15.5384 10.7788C15.4076 10.3306 15.106 8.97601 15.8822 7.99123C16.5344 7.16424 17.8046 6.76586 19.6703 6.80899C19.664 7.96194 19.4032 10.1772 18.1973 10.9234Z" />
    <path d="M8.32165 5.33492C9.0928 5.85025 9.97642 6 10.7424 6C11.7622 6 12.5731 5.73478 12.6312 5.71516C12.7358 5.6802 12.8213 5.60961 12.8702 5.51828C13.6748 4.0156 13.7316 2.77295 13.0386 1.82416C11.5504 -0.214138 7.12759 0.00123886 6.94073 0.0109365C6.72001 0.0228893 6.54502 0.184817 6.53464 0.386211C6.41254 2.79528 7.01364 4.46034 8.32165 5.33492ZM8.83209 4.69895C7.83378 4.03139 7.34761 2.71613 7.38493 0.786527C8.74286 0.771868 11.4103 1.01544 12.3198 2.26124C12.8092 2.9315 12.7596 3.85954 12.1725 5.0219C11.6594 5.15835 10.0274 5.49799 8.83209 4.69895Z" />
    <path d="M13.3435 18C13.3303 18 13.3171 17.9993 13.3037 17.998C13.0806 17.9761 12.9136 17.7754 12.9249 17.5423C12.9496 17.0299 12.9917 16.5438 13.049 16.0831C13.2232 13.0002 13.1333 5.82083 8.77036 3.83467C8.55856 3.73821 8.46177 3.48146 8.55449 3.26086C8.64697 3.04076 8.89447 2.9403 9.10603 3.03652C11.6771 4.20683 13.2946 7.12051 13.7826 11.4625C13.8265 11.8516 13.8593 12.2352 13.8837 12.6089C15.0328 9.588 16.7907 8.52064 16.8954 8.45957C17.0967 8.34117 17.3521 8.41644 17.4656 8.62558C17.5785 8.83496 17.5076 9.09993 17.307 9.21809C17.2627 9.24501 14.567 10.9281 13.8904 16.1183C13.8389 17.0062 13.7647 17.5723 13.7577 17.6241C13.7287 17.8415 13.5502 18 13.3435 18Z" />
</svg>
