<svg viewBox="0 0 30 29"
     fill="currentColor"
     xmlns="http://www.w3.org/2000/svg">
    <path d="M15.386 2.14329L28.6415 12.0524C28.9653 12.2945 29.0356 12.7587 28.7985 13.0892C28.6561 13.2877 28.4354 13.3928 28.2116 13.3928C28.0626 13.3928 27.9123 13.3463 27.783 13.2495L14.9568 3.66124L2.13051 13.2496C1.8068 13.4915 1.3521 13.4198 1.11501 13.0892C0.877913 12.7587 0.948261 12.2945 1.27203 12.0524L14.5276 2.14329C14.7831 1.95224 15.1304 1.95224 15.386 2.14329ZM24.3817 14.1046C24.3817 13.7115 24.7064 13.3929 25.1067 13.3929C25.5071 13.3929 25.8317 13.7115 25.8318 14.1046V26.1454C25.8318 26.5385 25.5072 26.8571 25.1068 26.8571H17.857C17.4755 26.8571 17.1634 26.5676 17.1348 26.2002C17.1331 26.1838 17.132 26.1659 17.132 26.1454V19.2495C17.132 18.0721 16.1562 17.1141 14.9568 17.1141C13.7573 17.1141 12.7815 18.072 12.7815 19.2495V26.1454C12.7815 26.166 12.7804 26.1842 12.7787 26.2008C12.7498 26.568 12.4378 26.8571 12.0565 26.8571H4.80674C4.4064 26.8571 4.08175 26.5385 4.08175 26.1454V14.1046C4.08175 13.7116 4.4064 13.3929 4.80674 13.3929C5.20708 13.3929 5.53172 13.7116 5.53172 14.1046V25.4336H11.3316V19.2495C11.3316 17.2872 12.9579 15.6905 14.9568 15.6905C16.9556 15.6905 18.582 17.287 18.582 19.2495V25.4336H24.3817V14.1046Z"/>
</svg>
