<svg viewBox="0 0 21 21"
     fill="currentColor"
     xmlns="http://www.w3.org/2000/svg">
    <path d="M9.18384 7.09774C9.22964 7.18797 9.27544 7.2782 9.32124 7.34586C9.36705 7.41353 9.43575 7.4812 9.48155 7.54887C9.55025 7.61654 9.61895 7.68421 9.71056 7.75188C9.77926 7.79699 9.87086 7.86466 9.98537 7.88722C10.077 7.93233 10.1686 7.95489 10.2831 7.97744C10.3976 8 10.4892 8 10.5808 8C10.6724 8 10.7869 8 10.8785 7.97744C10.9701 7.95489 11.0617 7.93233 11.1304 7.88722H11.1533C11.2449 7.84211 11.3365 7.79699 11.4281 7.72932C11.4968 7.68421 11.5655 7.61654 11.6342 7.54887L11.6571 7.52632C11.7258 7.45865 11.7716 7.39098 11.8174 7.32331C11.8632 7.25564 11.909 7.18797 11.9319 7.09774C11.9319 7.07519 11.9319 7.07519 11.9548 7.05263C12.0006 6.96241 12.0235 6.84962 12.0464 6.7594C12.0693 6.66917 12.0693 6.55639 12.0693 6.46617C12.0693 6.37594 12.0693 6.26316 12.0464 6.17293C12.0235 6.08271 12.0006 5.99248 11.9548 5.8797C11.8861 5.7218 11.7945 5.58647 11.68 5.47368C11.6571 5.45113 11.6571 5.45113 11.6342 5.42857C11.5655 5.3609 11.4968 5.31579 11.4052 5.24812C11.3136 5.20301 11.2449 5.15789 11.1533 5.11278C11.0617 5.06767 10.9701 5.04511 10.8785 5.02256C10.764 5 10.6724 5 10.5808 5C10.4892 5 10.3747 5 10.2831 5.02256C10.1915 5.04511 10.0999 5.06767 10.0083 5.11278H9.98537C9.89376 5.15789 9.80216 5.20301 9.73346 5.24812C9.64186 5.31579 9.57315 5.3609 9.50445 5.42857C9.43575 5.49624 9.36705 5.56391 9.32124 5.63158C9.27544 5.69925 9.22964 5.78947 9.18384 5.8797C9.13804 5.96992 9.11514 6.06015 9.09224 6.15038C9.06934 6.26316 9.06934 6.35338 9.06934 6.44361C9.06934 6.53383 9.06934 6.64662 9.09224 6.73684C9.11514 6.91729 9.16094 7.00752 9.18384 7.09774Z"/>
    <path d="M12.5645 14.0185H12.1179V9.48148C12.1179 9.22222 11.9043 9 11.613 9H9.57419C9.30235 9 9.06934 9.2037 9.06934 9.48148V10.4815C9.06934 10.7407 9.28293 10.963 9.57419 10.963H9.98196V14.037H9.57419C9.30235 14.037 9.06934 14.2407 9.06934 14.5185V15.5185C9.06934 15.7778 9.28293 16 9.57419 16H12.5645C12.8363 16 13.0693 15.7963 13.0693 15.5185V14.5185C13.0693 14.2407 12.8363 14.0185 12.5645 14.0185Z"/>
    <path d="M0.0693359 10.5C0.0693359 4.70293 4.77226 0 10.5693 0C16.3664 0 21.0693 4.70293 21.0693 10.5C21.0693 16.2971 16.3664 21 10.5693 21C4.77226 21 0.0693359 16.2971 0.0693359 10.5ZM1.45142 10.5C1.45142 15.5293 5.54009 19.6179 10.5693 19.6179C15.5986 19.6179 19.6873 15.5293 19.6873 10.5C19.6873 5.47075 15.5986 1.38208 10.5693 1.38208C5.54009 1.38208 1.45142 5.47075 1.45142 10.5Z"/>
</svg>
