<svg width="30"
     height="30"
     viewBox="0 0 28 28"
     fill="currentColor"
     xmlns="http://www.w3.org/2000/svg">
    <g clip-path="url(#investmentIcon)">
        <path d="M27.994 16.7612C27.994 13.0448 26.463 8.1849 22.2022 6.44058V4.5785L23.4691 3.56492C23.5836 3.47328 23.6502 3.33457 23.6501 3.18797V0.485097C23.6501 0.21855 23.434 0.00244141 23.1675 0.00244141H21.7195C21.5915 0.00244141 21.4688 0.0533616 21.3783 0.143859L20.7542 0.767933L20.1301 0.143859C20.0396 0.0533616 19.9169 0.00244141 19.7889 0.00244141H17.8583C17.7302 0.00244141 17.6075 0.0533616 17.517 0.143859L16.8929 0.767933L16.2689 0.143859C16.1784 0.0533616 16.0557 0.00244141 15.9276 0.00244141H14.4797C14.2131 0.00244141 13.997 0.21855 13.997 0.485097V3.18797C13.9969 3.33457 14.0636 3.47328 14.178 3.56492L15.445 4.5785V6.44058C11.1841 8.1849 9.65311 13.0467 9.65311 16.7612C9.64406 17.6327 9.77944 18.4997 10.0537 19.327C9.84617 19.3154 9.63718 19.3087 9.42867 19.3087H8.20514C8.20514 19.0421 7.98903 18.826 7.72249 18.826H3.86124C3.5947 18.826 3.37859 19.0421 3.37859 19.3087H0V20.274H3.37859V25.1005H0V26.0658H3.37859C3.37859 26.3324 3.5947 26.5485 3.86124 26.5485H7.72249C7.98903 26.5485 8.20514 26.3324 8.20514 26.0658V25.8819L11.8086 27.3782C13.7731 28.1805 15.9692 28.2048 17.9509 27.4462L25.407 24.6029C25.8487 24.4351 26.2041 24.0963 26.393 23.6632C26.683 23.0162 26.56 22.2588 26.0803 21.7369C27.3795 20.4148 28.0724 18.6132 27.994 16.7612ZM7.23983 25.5832H4.3439V19.7913H7.23983V25.5832ZM14.9623 2.95629V0.967752H15.7278L16.5517 1.79165C16.7402 1.98006 17.0457 1.98006 17.2342 1.79165L18.0581 0.967752H19.5891L20.4129 1.79165C20.6014 1.98006 20.9069 1.98006 21.0954 1.79165L21.9193 0.967752H22.6848V2.95629L21.5501 3.86369H16.0961L14.9623 2.95629ZM21.2368 4.829V6.27696H16.4103V4.829H21.2368ZM25.5079 23.2742C25.4226 23.4712 25.2615 23.6256 25.0609 23.7023L17.6049 26.5451C15.8529 27.2163 13.9112 27.1954 12.174 26.4867L8.20514 24.8365V20.274H9.42867C11.029 20.2758 12.6072 20.6484 14.0395 21.3624C14.5124 21.5984 15.0337 21.7215 15.5623 21.7219H19.3062C19.706 21.7245 20.0281 22.0508 20.0255 22.4506C20.0233 22.7855 19.7917 23.0752 19.4655 23.1511C19.4023 23.1569 19.3405 23.1699 19.2763 23.1699H13.5144V24.1352H19.2763C19.2864 24.1352 19.2961 24.1352 19.3062 24.1352C19.3159 24.1352 19.325 24.1323 19.3352 24.1323C19.7182 24.1262 20.0965 24.046 20.4491 23.8963L24.4846 22.1834C24.6768 22.1013 24.8943 22.1013 25.0865 22.1834C25.2864 22.2678 25.4433 22.43 25.5209 22.6327C25.6029 22.8396 25.5982 23.0708 25.5079 23.2742ZM25.2202 21.218C24.851 21.1191 24.4593 21.1461 24.1072 21.2948L20.9777 22.6235C20.9868 22.5647 20.9927 22.5054 20.9955 22.4459C20.9955 21.513 20.2392 20.7566 19.3062 20.7566H15.5623C15.1835 20.7561 14.81 20.6678 14.471 20.4989C13.4234 19.978 12.3014 19.6228 11.145 19.4457C10.7843 18.5974 10.6049 17.683 10.6184 16.7612C10.6184 13.2861 12.0379 8.72451 16.0242 7.24227H21.623C25.6092 8.72451 27.0287 13.2861 27.0287 16.7612C27.1098 18.4404 26.4484 20.0702 25.2202 21.218Z"/>
        <path d="M6.27464 23.6523H5.30933V24.6177H6.27464V23.6523Z"/>
        <path d="M19.8488 13.8322L18.104 13.2506C17.9158 13.1889 17.8132 12.9863 17.875 12.7981C17.9234 12.6504 18.0614 12.5507 18.2169 12.5512H19.4303C19.6284 12.5515 19.7889 12.7122 19.7889 12.9103V13.2269H20.7542V12.9103C20.7537 12.1793 20.1614 11.5867 19.4303 11.5859H19.3063V10.6206H18.341V11.5859H18.2169C17.4858 11.5854 16.8926 12.1778 16.8921 12.9089C16.8917 13.4796 17.257 13.9862 17.7985 14.1662L19.5433 14.7478C19.7314 14.8095 19.834 15.0121 19.7723 15.2003C19.7238 15.348 19.5858 15.4476 19.4303 15.4472H18.2169C18.0188 15.4469 17.8583 15.2862 17.8583 15.0881V14.7714H16.893V15.0881C16.8935 15.8191 17.4859 16.4117 18.2169 16.4125H18.341V17.3778H19.3063V16.4125H19.4303C20.1615 16.413 20.7547 15.8206 20.7552 15.0895C20.7556 14.5188 20.3903 14.0122 19.8488 13.8322Z"/>
        <path d="M18.824 8.68994C15.8918 8.68994 13.5148 11.067 13.5148 13.9992C13.5182 16.9299 15.8932 19.3049 18.824 19.3084C21.7562 19.3084 24.1332 16.9313 24.1332 13.9992C24.1332 11.067 21.7562 8.68994 18.824 8.68994ZM18.824 18.3431C16.4249 18.3431 14.4801 16.3982 14.4801 13.9992C14.4827 11.6012 16.426 9.65791 18.824 9.65525C21.2231 9.65525 23.1679 11.6001 23.1679 13.9992C23.1679 16.3983 21.2231 18.3431 18.824 18.3431Z"/>
    </g>
    <defs>
        <clipPath id="investmentIcon">
            <rect width="28" height="28"/>
        </clipPath>
    </defs>
</svg>
