<svg viewBox="0 0 33 29"
     fill="currentColor"
     xmlns="http://www.w3.org/2000/svg">
    <path fill-rule="evenodd"
          d="M22.4076 3.47368C22.1678 3.47368 21.9732 3.24135 21.9732 2.95465V0.519329C21.9732 0.232629 22.1678 0 22.4076 0C22.6473 0 22.8416 0.232629 22.8416 0.519329V2.95465C22.8416 3.24135 22.6473 3.47368 22.4076 3.47368ZM27.0299 9.55278C27.0299 12.1921 24.5252 14.2948 21.7475 13.6387C21.6788 11.2128 20.6377 9.0332 19.0118 7.49847C19.7579 6.19649 21.1824 5.34592 22.7458 5.34592C25.108 5.34592 27.0299 7.23322 27.0299 9.55278ZM17.6512 8.10578C17.6859 7.98777 17.7248 7.87165 17.7675 7.75756C16.5222 6.7978 14.9764 6.22869 13.3038 6.22869C9.77116 6.22869 6.69811 8.80802 5.99679 12.3618C5.95004 12.5984 5.748 12.7688 5.51338 12.7697C3.16431 12.7787 1.25304 14.7503 1.25304 17.1648C1.25304 19.5886 3.1714 21.5605 5.52896 21.5605H6.59525C6.86869 21.5605 7.09028 21.7886 7.09028 22.0697C7.09028 22.3508 6.86869 22.5789 6.59525 22.5789H5.52896C2.62508 22.5789 0.262695 20.1502 0.262695 17.1648C0.262695 14.3282 2.40406 11.9875 5.11242 11.7684C6.04865 7.94514 9.43283 5.21053 13.3041 5.21053C15.1372 5.21053 16.8359 5.81399 18.2219 6.83784C19.1704 5.32152 20.8783 4.34211 22.7458 4.34211C25.6719 4.34211 28.0522 6.67976 28.0522 9.55278C28.0522 10.8882 27.5378 12.108 26.6933 13.0311C26.7701 13.049 26.8441 13.1167 26.9004 13.2329L27.9644 15.4355C28.0895 15.6949 28.0797 16.0969 27.9426 16.3337C27.8781 16.4447 27.7969 16.5 27.7158 16.5C27.6245 16.5 27.5337 16.4301 27.4671 16.2926L26.4031 14.0905C26.3059 13.8886 26.2902 13.6008 26.3523 13.3714C25.4297 14.2122 24.2029 14.7354 22.8543 14.7621C23.9151 15.5546 24.5785 16.8342 24.5785 18.2549C24.5782 20.6391 22.6916 22.5789 20.372 22.5789H19.1127C18.8393 22.5789 18.6174 22.3508 18.6174 22.0697C18.6174 21.7886 18.8393 21.5605 19.1127 21.5605H20.372C22.1453 21.5605 23.5879 20.0777 23.5879 18.2549C23.5879 16.717 22.5706 15.3953 21.1141 15.0414C20.8767 14.9834 20.7154 14.7562 20.7347 14.5059C20.75 14.304 20.7605 14.1004 20.7605 13.8947C20.7605 11.7886 19.93 9.8781 18.5881 8.49115C18.4746 8.68946 18.2336 8.7918 18.0008 8.72732C17.7293 8.65034 17.5731 8.37203 17.6512 8.10578ZM3.73638 17.6639C3.73638 17.9804 3.99317 18.2368 4.30964 18.2368C4.62612 18.2368 4.88291 17.9804 4.88291 17.6639C4.88291 16.2173 6.05927 15.0409 7.50522 15.0409C7.8217 15.0409 8.07849 14.7845 8.07849 14.4677C8.07849 14.1512 7.8217 13.8947 7.50522 13.8947C5.42698 13.8947 3.73638 15.5857 3.73638 17.6639ZM11.5522 22.1018C11.5522 23.3228 12.526 24.3158 13.7229 24.3158C14.9204 24.3158 15.8943 23.3225 15.8943 22.1018C15.8943 21.0917 14.4629 18.1977 14.1758 17.6282C14.0013 17.2817 13.4448 17.282 13.2704 17.6282C12.9835 18.198 11.5522 21.0917 11.5522 22.1018ZM12.57 22.1018C12.57 21.6624 13.1507 20.2596 13.7229 19.036C14.2955 20.2593 14.8765 21.6621 14.8762 22.1018C14.8762 22.7503 14.359 23.2777 13.7229 23.2777C13.0872 23.2777 12.57 22.7503 12.57 22.1018ZM17.1966 28.6579C15.9997 28.6579 15.0259 27.6649 15.0259 26.4442C15.0259 25.4341 16.4569 22.5401 16.7441 21.9703C16.9185 21.6241 17.475 21.6238 17.6495 21.9703C17.9366 22.5401 19.368 25.4341 19.368 26.4442C19.368 27.6649 18.3941 28.6579 17.1966 28.6579ZM17.1966 23.3784C16.6244 24.602 16.0437 26.0048 16.0437 26.4442C16.0437 27.0927 16.5609 27.6198 17.1966 27.6198C17.8326 27.6198 18.3498 27.0927 18.3498 26.4442C18.3498 26.0048 17.7692 24.6018 17.1966 23.3784ZM6.34164 26.4442C6.34164 27.6649 7.31542 28.6579 8.51255 28.6579C9.70968 28.6579 10.6837 27.6649 10.6837 26.4442C10.6837 25.4341 9.2522 22.5401 8.96537 21.9703C8.79094 21.6238 8.23416 21.6241 8.05973 21.9703C7.7729 22.5401 6.34164 25.4341 6.34164 26.4442ZM7.35968 26.4442C7.35968 26.0048 7.94034 24.602 8.51255 23.3784C9.08505 24.6018 9.66571 26.0048 9.66571 26.4442C9.66571 27.0927 9.14853 27.6198 8.51255 27.6198C7.87657 27.6198 7.35968 27.0927 7.35968 26.4442ZM19.2016 15.1142C19.2016 15.4001 19.4334 15.6316 19.719 15.6316C20.0046 15.6316 20.2364 15.4001 20.2364 15.1142C20.2364 11.5687 17.3517 8.68421 13.8061 8.68421C13.5205 8.68421 13.289 8.91568 13.289 9.20162C13.289 9.48725 13.5205 9.71872 13.8061 9.71872C16.7813 9.71872 19.2016 12.1394 19.2016 15.1142ZM28.6726 10.4211H31.7742C32.1167 10.4211 32.3943 10.2265 32.3943 9.98672C32.3943 9.74694 32.1167 9.55263 31.7742 9.55263H28.6726C28.3297 9.55263 28.0522 9.74694 28.0522 9.98672C28.0522 10.2265 28.3297 10.4211 28.6726 10.4211ZM27.2927 4.18498C27.3554 4.29043 27.4341 4.34211 27.5122 4.34211C27.6022 4.34211 27.6919 4.27356 27.7566 4.13858L28.8365 1.89316C28.9576 1.64113 28.9467 1.25272 28.8117 1.02564C28.6769 0.798923 28.4693 0.820014 28.3476 1.07204L27.2679 3.31746C27.1466 3.56949 27.1577 3.95791 27.2927 4.18498ZM17.9145 5.00315C17.9811 5.14067 18.0719 5.21053 18.1632 5.21053C18.2443 5.21053 18.3255 5.15559 18.39 5.04426C18.5271 4.80742 18.5369 4.4054 18.4116 4.14599L17.3477 1.94344C17.2223 1.68513 17.0096 1.66621 16.8723 1.90269C16.7351 2.13954 16.7254 2.54155 16.8506 2.80096L17.9145 5.00315Z"/>
</svg>
