<svg width="24"
     height="20"
     fill="currentColor"
     viewBox="0 0 22.5 19.5"
     xmlns="http://www.w3.org/2000/svg">
    <path d="M17.3278 13.5493C17.1411 13.5493 16.9896 13.3999 16.9896 13.2159C16.9896 13.0319 17.1411 12.8826 17.3278 12.8826C19.7326 12.8826 21.6883 10.9546 21.6883 8.58528C21.6883 6.21661 19.732 4.28995 17.3278 4.28995C17.1262 4.28995 16.9131 4.30728 16.6574 4.34528C16.5126 4.36728 16.3692 4.29261 16.3043 4.16328C15.2598 2.07595 13.1506 0.779948 10.7999 0.779948C7.9695 0.779948 5.52068 2.67261 4.84421 5.38261C4.80632 5.53461 4.65615 5.63128 4.50732 5.63595L4.42141 5.63128C4.41938 5.63128 4.41735 5.63128 4.41532 5.63128C2.32503 5.63128 0.676471 7.25728 0.676471 9.25595C0.676471 11.2559 2.32774 12.8826 4.35782 12.8826C4.54453 12.8826 4.69606 13.0319 4.69606 13.2159C4.69606 13.3999 4.54453 13.5493 4.35782 13.5493C1.955 13.5493 0 11.6233 0 9.25595C0 6.92128 1.90088 5.01528 4.25771 4.96261C5.09721 2.09395 7.74897 0.113281 10.7992 0.113281C13.3278 0.113281 15.6048 1.46395 16.7988 3.65395C16.9882 3.63328 17.16 3.62328 17.3271 3.62328C20.1047 3.62328 22.3641 5.84928 22.3641 8.58528C22.3655 11.3226 20.1054 13.5493 17.3278 13.5493Z"/>
    <path d="M17.3276 13.5494C17.1409 13.5494 16.9894 13.4 16.9894 13.216C16.9894 13.032 17.1409 12.8827 17.3276 12.8827C19.7325 12.8827 21.6882 10.9547 21.6882 8.58536C21.6882 6.21669 19.7318 4.29002 17.3276 4.29002C16.068 4.29002 14.87 4.82669 14.0413 5.76202C13.9189 5.90136 13.7051 5.91536 13.5644 5.79402C13.4237 5.67336 13.4095 5.46269 13.532 5.32402C14.4885 4.24336 15.8719 3.62402 17.3276 3.62402C20.1052 3.62402 22.3646 5.85002 22.3646 8.58602C22.3653 11.3227 20.1052 13.5494 17.3276 13.5494Z"/>
    <path d="M6.74488 16.0023C6.78563 16.0106 6.82638 16.0148 6.86712 16.0148C7.0365 16.0148 7.1931 15.9442 7.24743 15.8334L7.98087 14.3408C8.04798 14.2034 7.93293 14.056 7.72281 14.0121C7.51268 13.9693 7.28817 14.0435 7.22026 14.1809L6.48682 15.6735C6.41891 15.811 6.53475 15.9584 6.74488 16.0023ZM5.27719 18.9875C5.31794 18.9958 5.35869 19 5.39943 19C5.56801 19 5.72541 18.9294 5.77974 18.8192L6.51318 17.3266C6.58109 17.1891 6.46525 17.0417 6.25512 16.9978C6.04659 16.9539 5.82048 17.0292 5.75257 17.1667L5.01913 18.6587C4.95202 18.7962 5.06707 18.9436 5.27719 18.9875Z"/>
    <path d="M13.7449 16.0023C13.7856 16.0106 13.8264 16.0148 13.8671 16.0148C14.0365 16.0148 14.1931 15.9442 14.2474 15.8334L14.9809 14.3408C15.048 14.2034 14.9329 14.056 14.7228 14.0121C14.5127 13.9693 14.2882 14.0435 14.2203 14.1809L13.4868 15.6735C13.4189 15.811 13.5348 15.9584 13.7449 16.0023ZM12.2772 18.9875C12.3179 18.9958 12.3587 19 12.3994 19C12.568 19 12.7254 18.9294 12.7797 18.8192L13.5132 17.3266C13.5811 17.1891 13.4652 17.0417 13.2551 16.9978C13.0466 16.9539 12.8205 17.0292 12.7526 17.1667L12.0191 18.6587C11.952 18.7962 12.0671 18.9436 12.2772 18.9875Z"/>
    <path d="M10.7449 16.0023C10.7856 16.0106 10.8264 16.0148 10.8671 16.0148C11.0365 16.0148 11.1931 15.9442 11.2474 15.8334L11.9809 14.3408C12.048 14.2034 11.9329 14.056 11.7228 14.0121C11.5127 13.9693 11.2882 14.0435 11.2203 14.1809L10.4868 15.6735C10.4189 15.811 10.5348 15.9584 10.7449 16.0023ZM9.27719 18.9875C9.31794 18.9958 9.35869 19 9.39943 19C9.56801 19 9.72541 18.9294 9.77974 18.8192L10.5132 17.3266C10.5811 17.1891 10.4652 17.0417 10.2551 16.9978C10.0466 16.9539 9.82048 17.0292 9.75257 17.1667L9.01913 18.6587C8.95202 18.7962 9.06707 18.9436 9.27719 18.9875Z"/>
</svg>
