<svg viewBox="0 0 31 28" 
     fill="currentColor" 
     xmlns="http://www.w3.org/2000/svg">
    <path d="M14.8025 25.0353C14.6256 24.953 14.41 25.0197 14.3212 25.182L13.0379 27.5227C12.9499 27.6857 13.0201 27.8836 13.197 27.9644C13.2503 27.9881 13.3052 28 13.3593 28C13.4894 28 13.6161 27.934 13.6799 27.8184L14.9616 25.477C15.0504 25.3155 14.9802 25.1168 14.8025 25.0353Z" />
    <path d="M19.8028 25.0353C19.6244 24.953 19.4104 25.0197 19.32 25.182L18.0386 27.5227C17.9489 27.6857 18.0208 27.8836 18.2 27.9644C18.2509 27.9881 18.305 28 18.3599 28C18.4899 28 18.6167 27.934 18.6789 27.8184L19.9619 25.477C20.0507 25.3155 19.9789 25.1168 19.8028 25.0353Z" />
    <path d="M24.8028 25.0353C24.6228 24.953 24.4088 25.0197 24.32 25.182L23.0386 27.5227C22.949 27.6857 23.0208 27.8836 23.1977 27.9644C23.2477 27.9881 23.3051 28 23.3583 28C23.49 28 23.6167 27.934 23.6789 27.8184L24.9619 25.477C25.0507 25.3155 24.9789 25.1168 24.8028 25.0353Z" />
    <path fill-rule="evenodd"
          clip-rule="evenodd"
          d="M12.8754 14.2997V14.3806C10.7369 14.3916 9 16.0963 9 18.1895C9 20.2902 10.7481 22 12.8952 22H22.8475H26.3281H26.3316C28.9046 22 31 19.9532 31 17.4361C31 14.9199 28.9046 12.8731 26.3316 12.8731C26.0928 12.8731 25.8497 12.8925 25.6024 12.9321C24.9567 10.051 22.3743 8 19.3178 8C15.7656 8 12.8754 10.8263 12.8754 14.2997ZM26.0679 21.25L12.8953 21.2507V21.2509C11.1705 21.2509 9.76547 19.8773 9.76547 18.1895C9.76547 16.5033 11.1705 15.1289 12.8953 15.1289C13.0134 15.1289 13.1289 15.1365 13.2409 15.1492C13.3547 15.1593 13.4693 15.1222 13.5495 15.0438C13.6314 14.9663 13.6737 14.8559 13.6659 14.7447C13.6512 14.5981 13.64 14.4497 13.64 14.2998C13.64 11.2392 16.188 8.74913 19.3178 8.74913C22.1287 8.74913 24.4836 10.7184 24.9189 13.4335C24.937 13.5363 24.9956 13.6299 25.0869 13.6863C25.1757 13.7453 25.2869 13.7629 25.3904 13.7385C25.711 13.6619 26.0265 13.6222 26.3316 13.6222C28.4822 13.6222 30.2329 15.3337 30.2329 17.4361C30.2329 19.5394 28.4822 21.2509 26.3316 21.2509V21.2584C26.2454 21.25 26.1549 21.25 26.0679 21.25Z" />
    <path d="M5 10.9441C5 7.66702 7.70456 5 11.0278 5C13.06 5 14.8185 5.85838 15.9383 7.53209C16.0516 7.70178 16.0046 7.93024 15.8325 8.04116C15.6604 8.15374 15.4304 8.10821 15.3154 7.93769C14.3342 6.47092 12.8081 5.73587 11.0278 5.73587C8.11587 5.73587 5.74707 8.07179 5.74707 10.9441C5.74707 12.7204 6.65195 14.3577 8.16707 15.3229C8.34083 15.433 8.39203 15.6598 8.27871 15.8311C8.20737 15.9404 8.08985 16 7.96646 16C7.89679 16 7.82544 15.9809 7.765 15.9412C6.03331 14.8403 5 12.9729 5 10.9441" />
    <path d="M10.5004 3C10.2946 3 10.125 2.8648 10.125 2.69919V0.299459C10.125 0.133844 10.2946 0 10.5004 0C10.708 0 10.875 0.133844 10.875 0.299459V2.69919C10.875 2.8648 10.708 3 10.5004 3Z" />
    <path d="M6.84736 3.94852C6.79438 3.98384 6.73637 4 6.67906 4C6.57097 4 6.46434 3.94318 6.4034 3.83875L5.04831 1.52064C4.95473 1.36093 5.00112 1.15054 5.15277 1.05149C5.30438 0.95167 5.50242 1.00161 5.59673 1.16129L6.95255 3.4794C7.04468 3.63988 6.99897 3.85027 6.84736 3.94855" />
    <path d="M3.66731 6.99997C3.61509 6.99997 3.56063 6.98668 3.5114 6.95868L1.17499 5.65199C1.01311 5.56077 0.952685 5.35105 1.03997 5.18264C1.12575 5.01424 1.32642 4.95109 1.4883 5.04075L3.82322 6.34821C3.98584 6.43865 4.04701 6.64838 3.96122 6.81756C3.90005 6.93373 3.78443 7 3.66731 7" />
    <path d="M0.299959 10.125H0.30104L2.70004 10.1333C2.86623 10.134 3 10.3002 3 10.5054C2.99892 10.7098 2.86488 10.875 2.70004 10.875H2.69896L0.299959 10.8659C0.133766 10.8652 0 10.6982 0 10.4938C0.00108094 10.2894 0.135117 10.125 0.299959 10.125" />
    <path d="M1.17363 16.3567L3.50678 15.0422C3.66772 14.9512 3.87132 15.0122 3.95964 15.178C4.04722 15.3446 3.98731 15.5529 3.8279 15.6439L1.4925 16.9575C1.44232 16.9869 1.38696 17 1.33306 17C1.21704 17 1.10027 16.936 1.03964 16.8218C0.953559 16.6552 1.01191 16.4469 1.17363 16.3567" />
    <path d="M20.8271 5.64393L18.4921 6.95835C18.4404 6.98692 18.3865 7 18.3326 7C18.2151 7 18.1013 6.9352 18.0406 6.82181C17.953 6.65597 18.0114 6.44693 18.1739 6.3559L20.5067 5.04226C20.6676 4.95124 20.8712 5.01214 20.9588 5.17802C21.0472 5.34386 20.9888 5.55213 20.8271 5.64393Z" />
    <path d="M6.40795 18.1611C6.50244 18.0005 6.69862 17.952 6.84937 18.052C6.99868 18.1519 7.04556 18.3625 6.95107 18.524L5.59219 20.8393C5.53232 20.9423 5.42629 21 5.32026 21C5.264 21 5.20414 20.9823 5.15221 20.9477C5.00146 20.8478 4.95458 20.6364 5.04834 20.4773L6.40795 18.1611Z" />
    <path d="M15.5908 3.84004C15.5317 3.94309 15.4264 4 15.3196 4C15.2612 4 15.2035 3.98382 15.1509 3.94924C15.0009 3.84773 14.9554 3.63702 15.0477 3.47707L16.4086 1.16078C16.5017 1.00083 16.6979 0.951611 16.85 1.05235C16.9993 1.15156 17.0448 1.36304 16.9517 1.52299L15.5908 3.84004Z" />
</svg>
