<svg width="26"
     height="26"
     viewBox="0 0 26 27"
     fill="none"
     stroke="black"
     xmlns="http://www.w3.org/2000/svg">
    <path d="M12.9641 11.1046C13.1741 11.2017 13.38 10.9641 13.3104 10.7114C12.8328 8.97638 11.1034 8.32915 9.49568 9.86843C8.65002 10.6782 8.33223 10.8503 8.32422 10.8546C8.88172 11.5116 9.51863 13.7164 10.9086 13.9602C12.4398 14.2875 13.7949 12.5118 12.6862 11.6993C11.957 11.1649 11.0985 10.8546 10.1783 10.8546C11.143 10.5982 12.1062 10.7081 12.9641 11.1046Z" />
    <path d="M21.0681 9.24862C18.0929 6.95426 16.1954 10.5725 17.3749 10.2138C18.2126 9.9591 19.1283 9.90361 20.0469 10.1002C18.4905 10.1002 17.0559 10.7773 16.0993 11.8795C16.1779 10.1474 16.2967 9.06321 16.4345 8.2567C17.2295 8.23076 18.2891 7.62127 18.871 6.55476C19.8742 4.85034 19.409 3.10274 19.2592 2C18.4754 2.72467 15.0512 1.87555 13.6937 4.08386C13.0941 5.05936 13.2684 6.24642 13.8992 7.1151C14.0989 7.3901 14.5763 7.25815 14.5899 6.92442C14.6492 5.47265 15.4102 4.37579 16.8291 3.76827C16.1924 4.55142 15.7744 5.42821 15.5584 6.33443C15.2227 7.74612 14.8721 8.67217 14.7434 13.1716C14.7303 13.6279 15.1197 14.0057 15.6005 13.9999C15.9485 13.9958 16.2467 13.7861 16.3806 13.481C16.5841 13.0171 16.9155 12.5369 17.4547 12.097C17.9671 12.6347 18.7468 12.9208 19.5536 12.7819C21.0374 12.5722 21.7299 10.6643 22.3242 10.1001C22.3155 10.0965 21.9748 9.9479 21.0681 9.24862Z" />
    <path d="M25.0107 15.7592C24.0777 15.1339 23.0623 15.5794 22.5959 15.8454L16.7438 20.0765L13.3172 20.0772L12.4606 19.231H15.6074C16.5539 19.231 17.6138 18.6221 17.6138 17.5382C17.6138 16.3875 16.5539 15.8454 15.6074 15.8454H14.4282C13.5521 15.8454 12.5284 15.9226 11.8066 15.5409C11.1208 15.1962 10.3311 15 9.48808 15C8.07253 15 6.80561 15.5574 5.93745 16.4366L1.32422 20.9227L6.46407 26L8.17736 23.4614H16.2735C17.1369 23.4614 17.9704 23.1485 18.6159 22.582L25.0693 16.919C25.4281 16.6042 25.4078 16.0253 25.0107 15.7592Z" />
</svg>
