<svg width="22"
     height="30"
     viewBox="0 0 22 29"
     fill="currentColor"
     xmlns="http://www.w3.org/2000/svg">
    <path d="M21 10.7783H21.5V10.7783L21 10.7783ZM11.67 27.7079L11.3017 27.3697L11.3017 27.3698L11.67 27.7079ZM10.33 27.7079L10.6983 27.3698L10.6983 27.3697L10.33 27.7079ZM11 0.5C5.22045 0.5 0.5 5.09991 0.5 10.7783H1.5C1.5 5.6732 5.75149 1.5 11 1.5V0.5ZM21.5 10.7783C21.4999 5.09991 16.7795 0.5 11 0.5V1.5C16.2484 1.5 20.4999 5.6732 20.5 10.7783L21.5 10.7783ZM12.0382 28.0461C12.2359 27.8309 14.5864 25.2513 16.8907 21.8789C18.0428 20.1927 19.1903 18.2982 20.0513 16.3942C20.9095 14.4966 21.5 12.553 21.5 10.7783H20.5C20.5 12.3494 19.9719 14.1429 19.1402 15.9821C18.3114 17.8149 17.1978 19.6568 16.065 21.3147C13.7995 24.6305 11.4851 27.1701 11.3017 27.3697L12.0382 28.0461ZM9.96174 28.0461C10.518 28.6519 11.4831 28.6507 12.0383 28.0461L11.3017 27.3698C11.1423 27.5433 10.8579 27.5435 10.6983 27.3698L9.96174 28.0461ZM0.5 10.7783C0.5 12.553 1.09053 14.4966 1.94866 16.3942C2.80968 18.2982 3.95719 20.1927 5.1093 21.8789C7.41355 25.2513 9.76412 27.8309 9.96175 28.0461L10.6983 27.3697C10.5149 27.1701 8.20048 24.6305 5.93497 21.3147C4.8022 19.6568 3.68864 17.8149 2.85982 15.9821C2.0281 14.1429 1.5 12.3494 1.5 10.7783H0.5ZM11 15.5C8.51911 15.5 6.5 13.4809 6.5 11H5.5C5.5 14.0331 7.96683 16.5 11 16.5V15.5ZM15.5 11C15.5 13.4809 13.4809 15.5 11 15.5V16.5C14.0332 16.5 16.5 14.0332 16.5 11H15.5ZM11 6.5C13.4809 6.5 15.5 8.51914 15.5 11H16.5C16.5 7.96686 14.0332 5.5 11 5.5V6.5ZM6.5 11C6.5 8.5191 8.51916 6.5 11 6.5V5.5C7.96689 5.5 5.5 7.96679 5.5 11H6.5Z"/>
</svg>
