<svg width="30" 
     height="30" 
     viewBox="0 0 30 30"
     xmlns="http://www.w3.org/2000/svg">
    <g clip-path="url(#wateringIcon)">
        <path d="M9.28357 12.9504C9.79444 13.2854 10.3779 13.4598 10.9686 13.4598C11.1499 13.4598 11.3316 13.4434 11.5122 13.4102C12.2897 13.2676 12.9519 12.832 13.3771 12.1836C13.6339 11.792 13.7887 11.3365 13.8253 10.8659C13.8255 10.8629 13.8257 10.86 13.8257 10.8572L13.9521 8.66041C13.9523 8.65652 13.9525 8.65263 13.9525 8.64874C13.9608 8.3885 13.9608 8.3885 13.9642 8.3148C13.9681 8.23881 13.9757 8.08706 13.999 7.51554C13.9992 7.50502 13.9995 7.49449 13.999 7.48419C13.9871 7.08593 13.8042 6.74444 13.4975 6.54714C13.1771 6.34092 12.7727 6.32284 12.3591 6.49633C12.3529 6.49885 12.3469 6.5016 12.3408 6.50434L11.376 6.96096C11.3733 6.96234 11.3705 6.96371 11.3678 6.96508L9.39504 7.94973C9.39229 7.95111 9.38932 7.95271 9.38657 7.95408C8.96909 8.17404 8.61203 8.49836 8.35408 8.89204C7.92973 9.53955 7.79446 10.3203 7.97368 11.0905C8.15106 11.8531 8.61638 12.5139 9.28357 12.9504ZM9.09474 9.3775C9.26984 9.11039 9.512 8.88998 9.79512 8.74006L11.7592 7.75953L12.7097 7.30978C12.8409 7.25645 12.9528 7.24981 13.0182 7.29193C13.0725 7.32695 13.1077 7.40316 13.1132 7.49792C13.0908 8.04861 13.0835 8.1967 13.0798 8.27108C13.0759 8.34776 13.0759 8.34845 13.0677 8.61532L12.942 10.8018C12.9164 11.1223 12.8109 11.4322 12.6365 11.6981C12.3453 12.1419 11.8894 12.4406 11.3522 12.5393C10.8077 12.6393 10.2456 12.5223 9.76903 12.2097C9.29296 11.8982 8.96176 11.4294 8.83634 10.8897C8.71251 10.3578 8.80429 9.82062 9.09474 9.3775Z"/>
        <path d="M11.9232 21.2105C12.2489 21.2105 12.5684 21.0519 12.7598 20.76L13.2221 20.0549C13.5142 19.6069 13.4002 19.0111 12.9747 18.7012L13.145 18.4415L20.6507 15.897C21.0396 16.2208 21.4965 16.458 21.9867 16.588C22.0023 16.5921 22.0179 16.5955 22.0339 16.5978C22.1527 16.6159 22.265 16.6248 22.371 16.6248C22.7178 16.6248 22.9959 16.5287 23.2 16.3373C23.4264 16.1249 23.5347 15.8162 23.5047 15.4685L23.312 13.1936L23.1195 10.9199C23.0895 10.5711 22.9306 10.285 22.6722 10.1145C22.3676 9.91354 21.9661 9.8934 21.4784 10.0543C21.4628 10.0593 21.4475 10.0653 21.4326 10.0722C20.9774 10.2807 20.5697 10.5881 20.2431 10.9669L17.9071 11.177L19.583 8.62035L20.2575 7.59199C20.7617 6.82065 20.5459 5.78244 19.7759 5.27753L14.1313 1.57765C13.359 1.07273 12.3206 1.2888 11.8166 2.05922L11.3854 2.71657L10.5534 2.17068C10.5369 2.15993 10.5202 2.15008 10.5035 2.14001C10.4964 2.13475 10.4895 2.12926 10.482 2.12422L7.91481 0.442393C7.23206 -0.0057582 6.41266 -0.160254 5.60791 0.00728805C4.80293 0.17483 4.11308 0.643352 3.66516 1.32679L0.735923 5.79526C0.288 6.47802 0.133963 7.29719 0.301734 8.10194C0.469504 8.90623 0.937568 9.59539 1.6201 10.0426C1.62032 10.0426 1.62055 10.0429 1.62078 10.0431L2.74208 10.7785L2.18635 11.6265L2.06893 11.5496C1.84577 11.4026 1.57844 11.3518 1.31637 11.4061C1.0543 11.4603 0.829307 11.613 0.683051 11.8359L0.220709 12.5411C-0.0800421 13.0025 0.0497341 13.6235 0.510016 13.9252L11.3762 21.0468C11.5451 21.1576 11.7351 21.2105 11.9232 21.2105ZM21.7789 10.8877C22.0222 10.811 22.1479 10.8298 22.1845 10.8538C22.2099 10.8707 22.2312 10.9277 22.2369 10.9952L22.4294 13.2685L22.6221 15.544C22.6281 15.6111 22.6168 15.6702 22.5942 15.6912C22.5624 15.721 22.442 15.7606 22.1902 15.7258C21.819 15.6235 21.474 15.439 21.1827 15.1879L20.9352 11.7185L20.9222 11.5349C21.1591 11.263 21.4521 11.0412 21.7789 10.8877ZM20.0584 11.8728L20.2875 15.0851L13.933 17.2394L17.2875 12.122L20.0584 11.8728ZM2.10647 9.30242C2.10601 9.30219 2.10578 9.30196 2.10533 9.30174C1.62078 8.98428 1.28822 8.49401 1.16874 7.92135C1.04926 7.34846 1.15844 6.76618 1.47613 6.28164C1.47636 6.28141 1.47659 6.28095 1.47659 6.28072L4.40582 1.81225C4.72397 1.32656 5.21492 0.993541 5.78827 0.874294C6.36139 0.755046 6.94412 0.864452 7.42936 1.18283L8.80311 2.08302C8.52524 2.21486 8.27004 2.41444 8.06496 2.67468L6.93566 1.93425C6.34239 1.54812 5.54565 1.71475 5.15976 2.30504L2.23098 6.77259C2.04399 7.05686 1.97967 7.39927 2.04971 7.7371C2.1202 8.07539 2.3159 8.36423 2.6004 8.55032L3.72101 9.28526L3.22754 10.0378L2.10647 9.30242ZM7.57218 3.41077L6.78688 4.60851L4.20646 8.54459L3.0854 7.8092C2.99888 7.75266 2.93891 7.66294 2.91694 7.55674C2.89497 7.45122 2.91397 7.34548 2.97119 7.25873L5.90065 2.78981C5.9755 2.67537 6.10527 2.61265 6.23642 2.61265C6.31081 2.61265 6.38565 2.63302 6.45111 2.6756L7.57218 3.41077ZM0.96183 13.0256L1.42349 12.3216C1.44546 12.288 1.47819 12.2767 1.49581 12.2731C1.51733 12.2687 1.5496 12.2678 1.58256 12.2896L2.0639 12.6052C2.06619 12.6068 2.06825 12.6086 2.07076 12.6102C2.07305 12.6116 2.07557 12.613 2.07809 12.6146L6.2188 15.3284C6.42342 15.4623 6.69785 15.4053 6.83174 15.2007C6.96587 14.9963 6.90888 14.7217 6.70426 14.5878L2.92678 12.112L4.70016 9.40679C4.70177 9.40473 4.70337 9.4029 4.70474 9.40084L7.4202 5.25785L8.69485 3.31372C9.02398 2.81155 9.64013 2.63119 10.0677 2.91135L11.2698 3.70007C11.3682 3.76462 11.4879 3.78728 11.6028 3.76347C11.7179 3.73944 11.8186 3.67101 11.8829 3.57259L12.5575 2.54445C12.7944 2.18213 13.2828 2.08096 13.6463 2.31854L19.2903 6.01819C19.6524 6.25554 19.7537 6.74421 19.5164 7.10699L16.6709 11.4477C16.6686 11.4509 16.6659 11.4541 16.6636 11.4576L12.4874 17.8287C12.4865 17.8301 12.4861 17.8315 12.4851 17.8329L12.2354 18.2137L8.30826 15.6388C8.10364 15.5049 7.82921 15.5619 7.69509 15.7665C7.56096 15.9709 7.61818 16.2453 7.82258 16.3795L12.1159 19.1943C12.1173 19.1952 12.1187 19.1963 12.1201 19.1972C12.1212 19.1979 12.1221 19.1984 12.123 19.1991L12.4483 19.4121C12.4998 19.4458 12.5144 19.5188 12.4808 19.5705L12.0191 20.2746C11.9974 20.3075 11.9651 20.3185 11.9477 20.3222C11.9301 20.3258 11.8955 20.3286 11.8617 20.3064L0.995476 13.1845C0.943519 13.1504 0.928184 13.0771 0.96183 13.0256Z"/>
        <path d="M29.6164 29.0559H29.4033C29.2147 27.5897 28.0771 26.5966 26.3175 26.3716C26.2252 25.6518 25.8831 24.9878 25.3141 24.4325C24.5459 23.6829 23.4221 23.2116 22.3287 23.1698C21.6979 22.2082 20.8783 21.5566 19.8889 21.2304C19.212 21.0089 18.4863 20.9517 17.7321 21.0602C17.4899 21.0952 17.3219 21.3195 17.3567 21.5616C17.3917 21.8036 17.6163 21.9718 17.8582 21.9368C18.4767 21.8477 19.0672 21.8933 19.6126 22.0718C20.465 22.3527 21.1683 22.9471 21.7027 23.8383C21.7847 23.975 21.9328 24.0571 22.0932 24.0532C23.0346 24.0313 24.0319 24.4185 24.6956 25.0663C25.0431 25.4055 25.4573 25.9765 25.4573 26.7772C25.4573 27.0113 25.6395 27.205 25.8732 27.2191C26.61 27.2638 28.2417 27.5375 28.5079 29.0559H8.39095C8.65691 27.5375 10.2886 27.2638 11.0254 27.2191C11.2591 27.205 11.4413 27.0063 11.4413 26.7721C11.4413 24.9871 13.8795 24.0519 14.723 24.0519C14.9354 24.0519 15.1178 23.901 15.1579 23.6925C15.2329 23.3016 15.6607 22.839 16.2743 22.4849C16.4863 22.3627 16.5588 22.0917 16.4366 21.88C16.3144 21.6683 16.0436 21.5955 15.8319 21.7177C15.1231 22.1267 14.6152 22.6493 14.3904 23.1892C13.7864 23.2668 12.9555 23.5417 12.1982 24.0516C11.2774 24.6715 10.7164 25.4824 10.5855 26.3711C8.82308 26.5948 7.68416 27.5883 7.49533 29.0559H7.28224C7.0378 29.0559 6.83936 29.2541 6.83936 29.4986C6.83936 29.7433 7.0378 29.9415 7.28224 29.9415H29.6161C29.8608 29.9415 30.059 29.7433 30.059 29.4986C30.059 29.2541 29.8608 29.0559 29.6164 29.0559Z"/>
        <path d="M14.8543 25.5032C14.5439 25.9418 14.5286 26.4529 14.8115 26.9079C14.8151 26.9143 14.8193 26.9209 14.8234 26.9273C15.077 27.321 15.4752 27.5421 15.9149 27.5421C15.9806 27.5421 16.0472 27.5371 16.1143 27.527C16.8474 27.4178 17.4775 26.7339 17.7588 25.7422C17.7608 25.7349 17.7627 25.7273 17.7645 25.7197C17.8709 25.2519 17.6606 24.8809 17.2157 24.7513C17.2079 24.7491 17.1999 24.747 17.1918 24.7452C16.2949 24.5376 15.3118 24.8562 14.8543 25.5032ZM15.9838 26.6513C15.8151 26.6765 15.6773 26.6115 15.5746 26.4581C15.5723 26.4542 15.57 26.4503 15.5675 26.4464C15.4704 26.2942 15.4734 26.161 15.5771 26.0145C15.7831 25.7234 16.3152 25.4968 16.881 25.5863C16.6544 26.3055 16.2605 26.6101 15.9838 26.6513Z"/>
        <path d="M20.402 28.142C20.5121 28.142 20.624 28.1276 20.7362 28.0985C21.4535 27.9118 22.0072 27.1651 22.1811 26.1496C22.1823 26.1425 22.1832 26.1356 22.1841 26.1285C22.2427 25.6497 21.9941 25.3023 21.5355 25.2219C21.5279 25.2206 21.5203 25.2194 21.5126 25.2185C20.5982 25.1066 19.6538 25.5279 19.267 26.2201C19.0024 26.6939 19.045 27.2095 19.3842 27.6346C19.3895 27.6412 19.3949 27.6476 19.4007 27.654C19.6627 27.971 20.0212 28.142 20.402 28.142ZM20.0404 26.652C20.2143 26.3405 20.719 26.0585 21.2917 26.0878C21.1432 26.8264 20.7838 27.1711 20.513 27.2414C20.3444 27.2853 20.1981 27.2322 20.0782 27.0837C20.0754 27.0802 20.0722 27.0763 20.0688 27.0722C19.9635 26.9351 19.9548 26.8049 20.0404 26.652Z"/>
    </g>
    <defs>
        <clipPath id="wateringIcon">
            <rect width="30" height="30"/>
        </clipPath>
    </defs>
</svg>
