<svg viewBox="0 0 30 29"
     fill="currentColor"
     xmlns="http://www.w3.org/2000/svg">
    <path fill-rule="evenodd"
          d="M27.5569 7.25451C25.6208 3.90108 22.4947 1.5024 18.7545 0.500199C15.0144 -0.502004 11.1078 0.0123512 7.75439 1.94839C4.40104 3.88443 2.00231 7.01055 1.00017 10.7507C-0.00197071 14.4909 0.512326 18.3976 2.44836 21.7509C4.18502 24.759 6.94523 27.045 10.2205 28.1879C11.7731 28.7297 13.3939 29 15.0122 29C16.7717 29 18.5281 28.6802 20.1883 28.0421C20.4802 27.9299 20.6259 27.6023 20.5137 27.3103C20.4014 27.0183 20.0737 26.8725 19.7818 26.9849C15.3627 28.6834 10.5787 27.9116 7.00453 25.2288L7.51197 22.58L7.75649 22.5006C8.68047 22.2004 9.18797 21.2044 8.88789 20.2804L8.70845 19.7282C8.66693 19.6004 8.66716 19.4653 8.70901 19.3376C8.86642 18.8578 8.81017 18.3328 8.55467 17.8971C8.29916 17.4615 7.86841 17.156 7.37275 17.0591L6.09437 16.8093L3.62779 14.9339C3.48001 14.8216 3.28658 14.7888 3.10998 14.8461L1.66587 15.3152C1.63523 14.7987 1.63477 14.2823 1.66389 13.7687C1.72087 13.8218 1.75797 13.8579 1.78079 13.8815C1.80906 13.9286 1.84406 13.9718 1.88507 14.0092C2.00299 14.1165 2.10982 14.1653 2.33411 14.1653C2.54023 14.1652 2.84535 14.1241 3.34917 14.0497C3.82699 13.9791 4.30232 13.8995 4.30702 13.8987C4.4975 13.8668 4.65853 13.7399 4.73432 13.5624C4.8101 13.3847 4.79011 13.1808 4.6813 13.0212L3.98683 12.0025L4.98155 11.2912C5.04782 11.2438 5.1031 11.1827 5.1436 11.112L6.68553 8.42017L7.30705 7.75419C7.94216 7.07348 8.12341 6.07757 7.76872 5.21685C7.55949 4.70918 7.19405 4.28653 6.73696 4.00168C7.232 3.6125 7.75983 3.25317 8.3208 2.92935C10.379 1.74103 12.6251 1.16516 14.8477 1.14313L13.8363 2.41183L10.0858 3.72663C9.93353 3.77999 9.81118 3.89587 9.74967 4.04507L8.70228 6.58416C8.62791 6.76456 8.65153 6.9704 8.76486 7.12922L10.2946 9.27205C10.0755 9.47194 9.86228 9.76307 9.60756 10.1246L9.60743 10.1247C9.49579 10.2832 9.39037 10.4328 9.31751 10.5167C9.25412 10.5898 9.19069 10.6612 9.12782 10.7319C8.79879 11.102 8.45861 11.4848 8.21692 11.9962C7.68552 13.121 7.79285 14.4284 8.49701 15.4082C9.17789 16.3555 10.3004 16.8371 11.4985 16.6961C11.6936 16.6733 11.8756 16.6282 12.0517 16.5846C12.5373 16.4645 12.6911 16.4525 12.8469 16.5983C12.9227 16.6692 12.9296 16.6827 12.9281 16.9233C12.927 17.0765 12.9259 17.267 12.9786 17.4846C13.0632 17.8326 13.2817 18.0731 13.4573 18.2664L13.4574 18.2664C13.5447 18.3625 13.6349 18.4618 13.6627 18.5285C13.8394 18.9518 13.7625 19.1862 13.5939 19.7C13.5795 19.7439 13.5648 19.7888 13.55 19.8348C13.2939 20.6275 13.6509 21.4138 13.9658 22.1074L13.966 22.1078C14.0682 22.3329 14.1647 22.5454 14.2279 22.7332C14.7372 24.2443 15.1189 24.5904 15.4253 24.7297C15.5858 24.8027 15.7518 24.8347 15.9196 24.8346C16.7361 24.8346 17.5881 24.0765 17.9794 23.5959C18.2253 23.2941 18.2858 22.9919 18.33 22.7712L18.3302 22.7703L18.3302 22.7702C18.3521 22.6609 18.3695 22.5746 18.4024 22.5181C18.453 22.4316 18.5126 22.3644 18.588 22.2795L18.5882 22.2792L18.5884 22.279C18.7402 22.1081 18.9291 21.8953 19.0515 21.5098C19.1444 21.2171 19.212 21.1452 19.4353 20.9072L19.4358 20.9067C19.4748 20.8653 19.5163 20.821 19.5609 20.7725C20.3153 19.9516 20.121 19.3246 19.9152 18.6606C19.7421 18.102 20.045 17.7447 20.7772 17.0628C21.0946 16.7672 21.4228 16.4615 21.6765 16.0943L21.6765 16.0942C21.7876 15.9334 22.1252 15.4445 21.9162 14.9599C21.7114 14.4847 21.1907 14.4048 20.7723 14.3407L20.7716 14.3406C20.6064 14.3152 20.3573 14.2769 20.278 14.2251C19.9276 13.996 19.7132 13.5178 19.5058 13.0554L19.5058 13.0553L19.5038 13.0508C19.4632 12.9603 19.4231 12.871 19.3825 12.7842C19.3089 12.6269 19.2353 12.4365 19.1574 12.235L19.1573 12.2347C18.9513 11.7015 18.7177 11.0971 18.3202 10.6757C17.963 10.2972 17.2896 10.1148 16.6954 9.95384L16.6949 9.95372C16.4951 9.89963 16.3064 9.84854 16.182 9.80261C16.0777 9.76409 15.9645 9.75712 15.8566 9.7825C15.5673 9.8503 15.3868 9.92501 15.2528 10.0324C15.2174 10.0608 15.1126 10.154 15.0512 10.3037C14.8438 10.2042 14.5587 10.0142 14.3832 9.8972L14.3723 9.88989C14.4314 9.65324 14.3779 9.46333 14.3218 9.34472C14.0054 8.67546 12.9551 8.72785 12.7479 8.74546C12.6302 8.75532 12.4813 8.76059 12.3238 8.76614C12.0764 8.77492 11.803 8.78477 11.5324 8.81513L11.5463 8.77627C11.7517 8.20403 12.2982 7.81955 12.9061 7.81955H13.2281C13.5409 7.81955 13.7945 7.56592 13.7945 7.2532C13.7945 6.94049 13.5409 6.68685 13.2281 6.68685H12.9061C12.0035 6.68685 11.177 7.1619 10.7137 7.90961L9.8689 6.72622L10.7 4.71156L14.3649 3.42672C14.4653 3.39149 14.5539 3.32862 14.6204 3.2453L16.2495 1.20175C20.4123 1.59773 24.3307 3.93167 26.576 7.82074C27.1741 8.85665 27.6165 9.94721 27.9106 11.0626L27.6705 11.2767C27.3571 11.5564 27.1735 11.9575 27.1665 12.3772L27.1662 12.3909L26.775 11.3151C26.7167 11.1546 26.6308 11.0074 26.5199 10.8777L25.8222 10.0607C25.5517 9.74404 25.1578 9.56251 24.7414 9.56251H23.8873C23.5841 9.56251 23.3071 9.72858 23.164 9.99575C23.021 10.263 23.0367 10.5857 23.2048 10.8379L23.2913 10.9677C22.7393 11.4422 22.101 11.822 21.4213 12.0782L20.2506 9.83557V9.33526C20.2506 9.18052 20.1872 9.0324 20.0753 8.92564L19.021 7.91919C18.9628 7.86368 18.8935 7.8212 18.8177 7.79452L17.8687 7.46102C17.5734 7.35714 17.2502 7.5125 17.1465 7.80755C17.0428 8.1027 17.198 8.42595 17.4931 8.52966L18.327 8.82278L19.1179 9.57763V9.97457C19.1179 10.0658 19.1399 10.1558 19.1822 10.2367L20.6479 13.0442C20.7797 13.2968 21.0789 13.4123 21.3459 13.3135L21.7727 13.1561C22.7642 12.7905 23.6831 12.2023 24.4304 11.4552C24.6212 11.2642 24.6509 10.9652 24.5011 10.7405L24.471 10.6953H24.7414C24.826 10.6953 24.906 10.7321 24.961 10.7965L25.6587 11.6134C25.6812 11.6398 25.6986 11.6695 25.7105 11.7022L26.4805 13.8196C26.5467 14.0016 26.7012 14.137 26.89 14.179C26.9308 14.188 26.9719 14.1924 27.0127 14.1924C27.1613 14.1924 27.3059 14.1339 27.4132 14.0265L27.7797 13.66C28.0118 13.4278 28.1716 13.1341 28.2479 12.8084C28.8148 17.3513 27.0335 22.0507 23.2684 25.0059C23.0223 25.1989 22.9793 25.5549 23.1725 25.801C23.3656 26.0471 23.7216 26.0901 23.9677 25.8969C26.686 23.7634 28.5534 20.7119 29.2261 17.3044C29.905 13.8641 29.3122 10.2949 27.5569 7.25451ZM3.17806 16.015L5.51352 17.7907C5.58257 17.8432 5.66266 17.8791 5.74773 17.8957L7.15536 18.1708C7.33503 18.2059 7.4849 18.3122 7.57751 18.4701C7.67011 18.6279 7.6896 18.8106 7.63262 18.9845C7.51537 19.3421 7.5148 19.7203 7.63109 20.0781L7.81053 20.6302C7.91775 20.9602 7.73638 21.316 7.40645 21.4232L6.84361 21.6061C6.64724 21.6699 6.50122 21.8355 6.46242 22.0382L6.00941 24.4029C5.0135 23.4913 4.13908 22.414 3.42932 21.1846C2.5634 19.685 2.02236 18.0854 1.78391 16.4679L3.17806 16.015ZM5.81264 7.69523L6.4789 6.98138C6.81252 6.62381 6.90779 6.10056 6.72144 5.64845C6.55582 5.24647 6.21677 4.93829 5.80364 4.80819C3.64608 6.85547 2.27425 9.53753 1.81427 12.3845C2.09317 12.6285 2.28025 12.7956 2.41488 12.9206C2.45085 12.954 2.48563 12.9864 2.51888 13.0183C2.69186 12.9994 2.95201 12.9638 3.24189 12.9207L2.73898 12.183C2.56555 11.9286 2.62706 11.5823 2.87752 11.4032L4.22223 10.4417L5.73521 7.80018C5.75691 7.76235 5.7829 7.72712 5.81264 7.69523ZM12.3638 9.89827H12.3638H12.3639C12.5354 9.89221 12.6975 9.88644 12.8423 9.87431C12.9187 9.86791 13.0036 9.8691 13.0836 9.87533C13.0479 9.96709 13.0362 10.0678 13.0518 10.1677C13.079 10.3435 13.1874 10.4961 13.3441 10.58C13.4504 10.6369 13.5982 10.7354 13.7547 10.8398L13.7548 10.8399L13.7548 10.8399C14.1975 11.135 14.6993 11.4694 15.1706 11.4995C15.598 11.5272 15.8364 11.2844 15.9391 11.1799L15.94 11.1789C15.9481 11.1707 15.9558 11.1624 15.964 11.1549C16.0215 11.108 16.0755 11.0451 16.1156 10.9692C16.2039 10.9945 16.2965 11.0196 16.3914 11.0453L16.3917 11.0454L16.3988 11.0473C16.7342 11.1381 17.3584 11.3072 17.4964 11.4533C17.7412 11.7129 17.9321 12.2068 18.1005 12.6427L18.1005 12.6427L18.1008 12.6434C18.1859 12.8638 18.2663 13.0717 18.3566 13.2646C18.3924 13.3412 18.4277 13.4199 18.4635 13.4996L18.4722 13.5189C18.7335 14.1019 19.0297 14.7626 19.6582 15.1734C19.943 15.3596 20.2921 15.4132 20.6002 15.4604L20.6007 15.4605C20.6379 15.4662 20.6806 15.4728 20.724 15.4799C20.5412 15.735 20.2809 15.9774 20.0058 16.2336L20.0054 16.234C19.3042 16.887 18.4316 17.6996 18.8335 18.9961C19.0232 19.6083 19.032 19.6744 18.727 20.0062C18.6854 20.0515 18.6467 20.0927 18.6104 20.1313L18.6103 20.1314C18.3491 20.4095 18.1428 20.6291 17.972 21.1672C17.9223 21.3235 17.8581 21.3959 17.7413 21.5273L17.7413 21.5273C17.648 21.6324 17.5317 21.7634 17.4245 21.9469C17.296 22.1667 17.2535 22.3785 17.2195 22.5486C17.1859 22.7159 17.1669 22.7999 17.1012 22.8806C16.9516 23.0642 16.6726 23.3309 16.3861 23.5129C16.1199 23.6819 15.9645 23.705 15.9115 23.7018C15.8511 23.637 15.6322 23.3533 15.3014 22.3715C15.2199 22.1294 15.1068 21.8803 14.9974 21.6394L14.9973 21.6391C14.756 21.1078 14.5066 20.5584 14.628 20.1829C14.6423 20.1387 14.6564 20.0954 14.6704 20.0531C14.8642 19.4623 15.0472 18.9044 14.7082 18.0922C14.6052 17.8453 14.4412 17.6647 14.2966 17.5054L14.2959 17.5046C14.2021 17.4015 14.0959 17.2846 14.0796 17.2173C14.0596 17.1352 14.0602 17.0405 14.061 16.9307V16.9307C14.0629 16.6347 14.0658 16.1876 13.6213 15.7713C12.9945 15.1846 12.2636 15.3654 11.7799 15.485L11.7771 15.4857L11.7771 15.4857C11.6296 15.5221 11.4902 15.5566 11.3666 15.5711C10.5709 15.6643 9.86052 15.3641 9.41702 14.747C8.95308 14.1014 8.88573 13.2327 9.24132 12.48C9.41345 12.1157 9.67349 11.823 9.97459 11.4843L9.98277 11.4751C10.0459 11.4041 10.1095 11.3325 10.1731 11.2592C10.2836 11.1319 10.4051 10.9594 10.5336 10.7769L10.5338 10.7766L10.5339 10.7766C10.6873 10.5587 10.9728 10.1535 11.0968 10.0764C11.3494 9.93426 11.9356 9.91346 12.3637 9.89827H12.3638H12.3638ZM20.7633 26.0668C20.9978 25.9298 21.2978 26.0102 21.4337 26.2463C21.5696 26.4825 21.4899 26.7851 21.2556 26.9221L21.2367 26.9331C21.1593 26.9784 21.0745 27 20.991 27C20.8219 27 20.6573 26.9117 20.5663 26.7536C20.4304 26.5174 20.5101 26.2148 20.7444 26.0778L20.7633 26.0668ZM23.2436 18.4279L23.4833 19.4718C23.5068 19.574 23.5054 19.6818 23.4794 19.7833L22.8933 22.0653C22.5811 23.2809 22.199 23.8917 21.6908 23.9876C21.6495 23.9954 21.605 24.0002 21.5579 24C21.3167 24 21.0063 23.8751 20.711 23.3895C20.2973 22.709 20.5923 21.9085 20.7509 21.4786L20.7559 21.4652C20.7957 21.3572 20.7907 21.2976 20.7687 21.1259C20.7433 20.9279 20.7085 20.6566 20.8017 20.3138C20.9517 19.761 21.3446 19.542 21.6315 19.382C21.7515 19.3151 21.8757 19.2459 21.924 19.1816C22.01 19.0673 22.0928 18.86 22.1727 18.6596C22.2203 18.5405 22.2695 18.4173 22.3241 18.301C22.4215 18.0937 22.6183 17.9765 22.8212 18.0039C23.0238 18.0319 23.1912 18.1999 23.2436 18.4279ZM21.5568 22.7751C21.6381 22.6469 21.7789 22.3576 21.938 21.7378L22.3151 20.2696C22.2291 20.3271 22.1439 20.3746 22.0665 20.4178L22.0646 20.4189C21.8887 20.517 21.772 20.5866 21.7524 20.6584C21.7287 20.7457 21.7354 20.8093 21.7544 20.9572L21.7545 20.9577C21.784 21.1886 21.8245 21.5047 21.6727 21.9162L21.6677 21.9297L21.6676 21.9298C21.5735 22.1852 21.4312 22.5711 21.5264 22.7278C21.5373 22.7457 21.5474 22.7613 21.5568 22.7751ZM15.1437 7.02791L15.1764 7.03957C15.4284 7.12985 15.561 7.41179 15.4726 7.66933C15.4028 7.87266 15.2159 8 15.0163 8C14.9632 8 14.9092 7.99101 14.8562 7.97203L14.8236 7.96037C14.5716 7.87005 14.439 7.58815 14.5274 7.33061C14.6158 7.07312 14.8919 6.93778 15.1437 7.02791Z"/>
</svg>