<svg width="28" 
     height="28"
     viewBox="0 0 28 26"
     xmlns="http://www.w3.org/2000/svg">
    <path fill-rule="evenodd" d="M27.5901 26.1568H27.2169C27.0295 24.0796 25.4724 22.3892 23.4635 22.0891C23.3988 21.1677 23.095 20.2911 22.5753 19.534C22.4445 19.3438 22.1888 19.2983 22.0038 19.4325C21.8188 19.5669 21.7746 19.8298 21.9051 20.02C22.3967 20.7361 22.6564 21.5806 22.6564 22.4627V22.4709C22.6564 22.6938 22.8254 22.8783 23.042 22.8917C24.7957 22.9996 26.1972 24.3989 26.3925 26.1568H1.60602C1.80127 24.3989 3.20285 22.9996 4.95648 22.8917C5.1731 22.8783 5.34207 22.6938 5.34207 22.4709V22.4627C5.34207 20.1244 7.19226 18.222 9.46649 18.222C9.51477 18.222 9.56284 18.2231 9.61111 18.2249C9.61282 18.2249 9.61453 18.2253 9.61646 18.2253L9.61774 18.2251C9.74335 18.2299 9.86789 18.2402 9.98987 18.2567C10.1392 18.2769 10.2874 18.211 10.3759 18.0852C11.2705 16.8084 12.7166 16.0462 14.2442 16.0462C15.7556 16.0462 17.1932 16.7958 18.0898 18.0516C18.1671 18.1596 18.29 18.2238 18.4205 18.2238C18.4362 18.2238 18.4518 18.2234 18.4677 18.223C18.4732 18.2229 18.4788 18.2228 18.4844 18.2227L18.5004 18.2224C18.5074 18.2223 18.5143 18.2222 18.5213 18.2221C18.5254 18.222 18.5294 18.222 18.5335 18.222C19.2622 18.222 19.9799 18.421 20.6093 18.7975C20.805 18.9146 21.056 18.8465 21.1698 18.6453C21.2839 18.4441 21.2175 18.186 21.0218 18.0687C20.2929 17.6327 19.4653 17.3953 18.6226 17.3797C17.8711 16.4073 16.8337 15.7174 15.6853 15.3998C15.6716 14.0955 15.5505 12.8244 15.3313 11.7049C15.2867 11.4766 15.0705 11.3286 14.8485 11.3745C14.6263 11.4206 14.4826 11.6429 14.5274 11.8711C14.727 12.8916 14.8417 14.047 14.863 15.239C14.6584 15.2153 14.4518 15.203 14.2442 15.203C12.5339 15.203 10.911 16.0179 9.85529 17.3946C9.83357 17.3928 9.81175 17.3917 9.7899 17.3905L9.75745 17.3887C6.84192 15.2489 5.18719 13.0179 5.21475 11.2563C5.22885 10.3584 5.68088 9.55165 6.55887 8.85295L6.85858 9.4192C6.97223 9.63709 7.16214 9.79568 7.39349 9.86597C7.47809 9.89166 7.56461 9.9044 7.65048 9.9044C7.79724 9.9044 7.94272 9.86728 8.07559 9.79414L8.07794 9.79282L9.23343 9.14684C9.66837 8.90281 9.82922 8.34073 9.59253 7.89485L9.30991 7.36067C10.3105 7.03076 11.1853 7.03098 11.9157 7.36221C12.812 7.76877 13.5253 8.67943 14.0357 10.0689C14.0976 10.2376 14.2536 10.3415 14.4193 10.3415C14.4674 10.3415 14.5163 10.3329 14.5642 10.3143C14.7759 10.2321 14.8829 9.98875 14.8028 9.77086C14.2117 8.16194 13.3517 7.09204 12.2466 6.5908C11.2893 6.15656 10.1689 6.16403 8.91235 6.60925L8.5932 6.00588C8.76196 5.41108 8.69745 4.7864 8.41119 4.24651L6.80817 1.21318C6.52127 0.669988 6.04361 0.273524 5.46362 0.0971476C4.88342 -0.0794489 4.27289 -0.0137744 3.74417 0.281871C3.21545 0.576857 2.82965 1.06821 2.6579 1.66521C2.48636 2.26199 2.55002 2.88974 2.83691 3.43293L4.43994 6.46473C4.72769 7.00857 5.20578 7.40526 5.78577 7.58185C5.82133 7.59276 5.85726 7.60163 5.89321 7.6105L5.89321 7.6105L5.90262 7.61282L6.16238 8.10395C5.00818 8.98188 4.41367 10.0362 4.39487 11.2427C4.35706 13.661 6.65735 15.9968 8.5007 17.4765C6.3508 17.916 4.69821 19.7934 4.53522 22.0891C2.52609 22.3892 0.968994 24.0796 0.781647 26.1568H0.409943C0.183502 26.1568 0 26.3457 0 26.5785C0 26.8113 0.183502 27 0.409943 27H27.5901C27.8165 27 28 26.8113 28 26.5785C28 26.3457 27.8165 26.1568 27.5901 26.1568ZM8.12579 6.88711L8.87241 8.29834C8.89249 8.33634 8.87796 8.38598 8.841 8.40663L7.68765 9.05129C7.66202 9.06513 7.63831 9.06118 7.62613 9.05744C7.61224 9.05327 7.59344 9.04361 7.58041 9.01857L6.85004 7.63874C7.0769 7.59437 7.29779 7.51376 7.50586 7.39735C7.74384 7.26424 7.95233 7.09116 8.12579 6.88711ZM5.16049 6.06189C5.34357 6.40784 5.64841 6.66065 6.01862 6.77333C6.08569 6.79376 6.15341 6.80891 6.22113 6.81924C6.2224 6.81945 6.22368 6.81951 6.22492 6.81956C6.22619 6.81962 6.22742 6.81967 6.22861 6.8199L6.24634 6.82275C6.54498 6.86273 6.84619 6.80628 7.11407 6.65648C7.4046 6.49416 7.6272 6.23783 7.75281 5.92527C7.75505 5.91933 7.75722 5.91333 7.75937 5.90741C7.76111 5.90259 7.76283 5.89783 7.76456 5.8932C7.76495 5.8922 7.76542 5.89125 7.76589 5.89032C7.76645 5.8892 7.76699 5.88813 7.76733 5.88705C7.78122 5.84993 7.79382 5.81259 7.80493 5.77415C7.91431 5.39351 7.87372 4.99419 7.69107 4.64956L6.08783 1.61579C5.9054 1.2705 5.6012 1.01835 5.2312 0.90567C5.0947 0.864156 4.95563 0.843729 4.81784 0.843729C4.58136 0.843729 4.34808 0.904132 4.13596 1.02274C4.13574 1.02296 4.13553 1.02296 4.13531 1.02296C3.79929 1.21054 3.55383 1.52354 3.44446 1.90441C3.33487 2.28506 3.37524 2.68481 3.55768 3.03032L5.16049 6.06189Z" />
    <path d="M8.57076 20.5903C9.3229 19.8407 10.5787 19.8006 11.5567 20.4953C11.5628 20.4995 11.5688 20.504 11.5746 20.5088C12.0158 20.8583 12.1211 21.4249 11.8563 22.024C11.8533 22.0309 11.8502 22.0374 11.847 22.0439C11.8461 22.0457 11.8453 22.0476 11.8444 22.0494C11.2309 23.2766 10.3719 24 9.55457 24C9.47638 24 9.39841 23.9935 9.32111 23.98C8.71998 23.8753 8.25439 23.3648 8.07268 22.6129C8.06753 22.594 8.06327 22.5751 8.05991 22.5559C7.89299 21.7964 8.07851 21.0811 8.57076 20.5903ZM9.43919 22.9074C9.84472 22.9784 10.525 22.6479 11.1095 21.4861C11.1182 21.4658 11.1245 21.4492 11.129 21.4356C11.1274 21.4339 11.1256 21.4325 11.1238 21.4311C10.3845 20.9127 9.51805 21.0272 9.10467 21.4393C8.88219 21.6613 8.81251 21.9366 8.89205 22.2815L8.89541 22.2973C8.98033 22.6493 9.16808 22.8603 9.43919 22.9074Z" />
    <path d="M16.2105 18.0292C16.7687 18.1344 17.0598 18.5663 16.9897 19.1844C16.989 19.1926 16.9878 19.2008 16.9863 19.2091C16.7543 20.6375 16.0267 21.6844 15.0878 21.9421C14.9456 21.981 14.8037 22 14.6639 22C14.1744 22 13.7143 21.7657 13.3796 21.3315C13.3696 21.3191 13.3603 21.3065 13.3516 21.2934C12.9351 20.7267 12.8861 20.0435 13.2182 19.4151C13.7257 18.4538 14.9736 17.8692 16.1847 18.0251C16.1934 18.0261 16.202 18.0274 16.2105 18.0292ZM14.8528 20.9863C15.2842 20.8679 15.8587 20.2915 16.0632 19.0555C16.0651 19.0352 16.0659 19.0187 16.0661 19.0053C16.0651 19.0051 16.064 19.0049 16.0628 19.0046C16.0611 19.0043 16.0593 19.0039 16.0574 19.0035C15.1447 18.8924 14.3131 19.3686 14.0342 19.8964C13.884 20.1809 13.9049 20.4435 14.0982 20.6992C14.1021 20.7043 14.106 20.7097 14.1096 20.7151C14.3102 20.9708 14.5666 21.0647 14.8528 20.9863Z" />
    <path d="M17.6641 25C17.1714 25 16.7081 24.7623 16.3727 24.323C16.3671 24.3158 16.3617 24.3083 16.3566 24.3006C15.9352 23.7324 15.8848 23.0462 16.2186 22.4147C16.7273 21.4527 17.9752 20.8683 19.1867 21.0254C19.1945 21.0265 19.2023 21.0277 19.2101 21.029C19.7688 21.1319 20.0602 21.5633 19.9896 22.1829C19.9886 22.1911 19.9874 22.1991 19.9862 22.2071L19.9862 22.2071C19.7552 23.6352 19.0283 24.6831 18.0893 24.9414C17.9467 24.9807 17.8043 25 17.6641 25ZM19.0597 22.0039C18.1473 21.891 17.314 22.3674 17.0343 22.8962C16.8853 23.1784 16.9043 23.4387 17.0922 23.692C17.0993 23.7008 17.1059 23.7098 17.1125 23.719C17.313 23.9719 17.5689 24.0642 17.8537 23.9858C18.2851 23.8672 18.8593 23.29 19.0628 22.0541C19.0648 22.0342 19.0655 22.018 19.0658 22.0052C19.0638 22.0047 19.0619 22.0042 19.0597 22.0039Z" />
</svg>
