<svg width="33" height="29" viewBox="0 0 33 29" fill="none" xmlns="http://www.w3.org/2000/svg">
<path fill-rule="evenodd" clip-rule="evenodd" d="M22.4074 3.47368C22.1676 3.47368 21.9731 3.24135 21.9731 2.95465V0.519329C21.9731 0.232629 22.1676 0 22.4074 0C22.6472 0 22.8415 0.232629 22.8415 0.519329V2.95465C22.8415 3.24135 22.6472 3.47368 22.4074 3.47368ZM27.0298 9.55278C27.0298 12.1921 24.5251 14.2948 21.7473 13.6387C21.6787 11.2128 20.6375 9.0332 19.0117 7.49847C19.7578 6.19649 21.1823 5.34592 22.7457 5.34592C25.1078 5.34592 27.0298 7.23322 27.0298 9.55278ZM17.6511 8.10578C17.6858 7.98777 17.7246 7.87165 17.7673 7.75756C16.522 6.7978 14.9763 6.22869 13.3037 6.22869C9.77102 6.22869 6.69796 8.80802 5.99664 12.3618C5.94989 12.5984 5.74785 12.7688 5.51323 12.7697C3.16417 12.7787 1.25289 14.7503 1.25289 17.1648C1.25289 19.5886 3.17125 21.5605 5.52881 21.5605H6.5951C6.86855 21.5605 7.09013 21.7886 7.09013 22.0697C7.09013 22.3508 6.86855 22.5789 6.5951 22.5789H5.52881C2.62493 22.5789 0.262547 20.1502 0.262547 17.1648C0.262547 14.3282 2.40391 11.9875 5.11227 11.7684C6.0485 7.94514 9.43268 5.21053 13.304 5.21053C15.1371 5.21053 16.8357 5.81399 18.2218 6.83784C19.1703 5.32152 20.8781 4.34211 22.7457 4.34211C25.6717 4.34211 28.052 6.67976 28.052 9.55278C28.052 10.8882 27.5376 12.108 26.6931 13.0311C26.77 13.049 26.844 13.1167 26.9003 13.2329L27.9642 15.4355C28.0894 15.6949 28.0795 16.0969 27.9425 16.3337C27.878 16.4447 27.7967 16.5 27.7157 16.5C27.6244 16.5 27.5335 16.4301 27.4669 16.2926L26.403 14.0905C26.3057 13.8886 26.29 13.6008 26.3521 13.3714C25.4295 14.2122 24.2028 14.7354 22.8541 14.7621C23.9149 15.5546 24.5783 16.8342 24.5783 18.2549C24.5781 20.6391 22.6914 22.5789 20.3718 22.5789H19.1126C18.8391 22.5789 18.6173 22.3508 18.6173 22.0697C18.6173 21.7886 18.8391 21.5605 19.1126 21.5605H20.3718C22.1451 21.5605 23.5877 20.0777 23.5877 18.2549C23.5877 16.717 22.5704 15.3953 21.114 15.0414C20.8765 14.9834 20.7153 14.7562 20.7345 14.5059C20.7498 14.304 20.7603 14.1004 20.7603 13.8947C20.7603 11.7886 19.9299 9.8781 18.588 8.49115C18.4744 8.68946 18.2334 8.7918 18.0006 8.72732C17.7292 8.65034 17.573 8.37203 17.6511 8.10578ZM3.73623 17.6639C3.73623 17.9804 3.99302 18.2368 4.30949 18.2368C4.62597 18.2368 4.88276 17.9804 4.88276 17.6639C4.88276 16.2173 6.05913 15.0409 7.50507 15.0409C7.82155 15.0409 8.07834 14.7845 8.07834 14.4677C8.07834 14.1512 7.82155 13.8947 7.50507 13.8947C5.42683 13.8947 3.73623 15.5857 3.73623 17.6639ZM11.552 22.1018C11.552 23.3228 12.5259 24.3158 13.7228 24.3158C14.9203 24.3158 15.8941 23.3225 15.8941 22.1018C15.8941 21.0917 14.4628 18.1977 14.1756 17.6282C14.0012 17.2817 13.4447 17.282 13.2702 17.6282C12.9834 18.198 11.552 21.0917 11.552 22.1018ZM12.5698 22.1018C12.5698 21.6624 13.1505 20.2596 13.7228 19.036C14.2953 20.2593 14.8763 21.6621 14.876 22.1018C14.876 22.7503 14.3588 23.2777 13.7228 23.2777C13.087 23.2777 12.5698 22.7503 12.5698 22.1018ZM17.1965 28.6579C15.9995 28.6579 15.0257 27.6649 15.0257 26.4442C15.0257 25.4341 16.4568 22.5401 16.7439 21.9703C16.9184 21.6241 17.4749 21.6238 17.6493 21.9703C17.9365 22.5401 19.3678 25.4341 19.3678 26.4442C19.3678 27.6649 18.394 28.6579 17.1965 28.6579ZM17.1965 23.3784C16.6242 24.602 16.0435 26.0048 16.0435 26.4442C16.0435 27.0927 16.5607 27.6198 17.1965 27.6198C17.8325 27.6198 18.3497 27.0927 18.3497 26.4442C18.3497 26.0048 17.769 24.6018 17.1965 23.3784ZM6.34149 26.4442C6.34149 27.6649 7.31527 28.6579 8.5124 28.6579C9.70953 28.6579 10.6836 27.6649 10.6836 26.4442C10.6836 25.4341 9.25205 22.5401 8.96522 21.9703C8.79079 21.6238 8.23401 21.6241 8.05958 21.9703C7.77275 22.5401 6.34149 25.4341 6.34149 26.4442ZM7.35953 26.4442C7.35953 26.0048 7.94019 24.602 8.5124 23.3784C9.0849 24.6018 9.66556 26.0048 9.66556 26.4442C9.66556 27.0927 9.14839 27.6198 8.5124 27.6198C7.87642 27.6198 7.35953 27.0927 7.35953 26.4442ZM19.2015 15.1142C19.2015 15.4001 19.4332 15.6316 19.7188 15.6316C20.0045 15.6316 20.2362 15.4001 20.2362 15.1142C20.2362 11.5687 17.3516 8.68421 13.8059 8.68421C13.5203 8.68421 13.2889 8.91568 13.2889 9.20162C13.2889 9.48725 13.5203 9.71872 13.8059 9.71872C16.7812 9.71872 19.2015 12.1394 19.2015 15.1142ZM28.6725 10.4211H31.774C32.1166 10.4211 32.3941 10.2265 32.3941 9.98672C32.3941 9.74694 32.1166 9.55263 31.774 9.55263H28.6725C28.3296 9.55263 28.052 9.74694 28.052 9.98672C28.052 10.2265 28.3296 10.4211 28.6725 10.4211ZM27.2926 4.18498C27.3552 4.29043 27.434 4.34211 27.512 4.34211C27.6021 4.34211 27.6918 4.27356 27.7565 4.13858L28.8363 1.89316C28.9574 1.64113 28.9465 1.25272 28.8115 1.02564C28.6767 0.798923 28.4691 0.820014 28.3475 1.07204L27.2678 3.31746C27.1465 3.56949 27.1576 3.95791 27.2926 4.18498ZM17.9143 5.00315C17.9809 5.14067 18.0718 5.21053 18.1631 5.21053C18.2441 5.21053 18.3254 5.15559 18.3899 5.04426C18.5269 4.80742 18.5367 4.4054 18.4114 4.14599L17.3475 1.94344C17.2222 1.68513 17.0095 1.66621 16.8722 1.90269C16.7349 2.13954 16.7253 2.54155 16.8504 2.80096L17.9143 5.00315Z" fill="white"/>
</svg>
